SplineFontDB: 3.2
FontName: enigmahack-matrix-code
FullName: matrix-code
FamilyName: enigmahack-matrix-code
Weight: Book
Version: 1.0
ItalicAngle: 0
UnderlinePosition: 0
UnderlineWidth: 0
Ascent: 960
Descent: 64
InvalidEm: 0
sfntRevision: 0x00010000
LayerCount: 2
Layer: 0 1 "Back" 1
Layer: 1 1 "Fore" 0
XUID: [1021 638 -1978960693 27972]
StyleMap: 0x0040
FSType: 0
OS2Version: 3
OS2_WeightWidthSlopeOnly: 0
OS2_UseTypoMetrics: 0
CreationTime: 1591730347
ModificationTime: 1764384218
PfmFamily: 81
TTFWeight: 400
TTFWidth: 5
LineGap: 0
VLineGap: 0
Panose: 0 0 0 0 0 0 0 0 0 0
OS2TypoAscent: 960
OS2TypoAOffset: 0
OS2TypoDescent: -64
OS2TypoDOffset: 0
OS2TypoLinegap: 64
OS2WinAscent: 960
OS2WinAOffset: 0
OS2WinDescent: 64
OS2WinDOffset: 0
HheadAscent: 960
HheadAOffset: 0
HheadDescent: -64
HheadDOffset: 0
OS2SubXSize: 665
OS2SubYSize: 716
OS2SubXOff: 0
OS2SubYOff: 143
OS2SupXSize: 665
OS2SupYSize: 716
OS2SupXOff: 0
OS2SupYOff: 491
OS2StrikeYSize: 51
OS2StrikeYPos: 265
OS2CapHeight: 813
OS2XHeight: 833
OS2Vendor: 'PfEd'
OS2CodePages: 00000001.00000000
OS2UnicodeRanges: 00000001.00000000.00000000.00000000
MarkAttachClasses: 1
DEI: 91125
ShortTable: maxp 16
  1
  0
  125
  77
  4
  0
  0
  2
  0
  0
  0
  0
  0
  0
  0
  0
EndShort
LangName: 1033 "" "" "Regular" "FontForge : matrix-code : 27-11-2025" "" "Version 1.0" "" "" "" "" "Font generated by IcoMoon."
GaspTable: 1 65535 15 1
Encoding: UnicodeBmp
UnicodeInterp: none
NameList: AGL For New Fonts
DisplaySize: -48
AntiAlias: 1
FitToEm: 0
WinInfo: 0 58 19
BeginChars: 65539 124

StartChar: uni0000
Encoding: 0 0 1
Width: 0
GlyphClass: 1
Flags: W
LayerCount: 2
Fore
SplineSet
0 0 m 1,0,-1
 0 0 l 1,1,-1
 0 0 l 1,2,-1
 0 0 l 1,0,-1
EndSplineSet
EndChar

StartChar: uni0001
Encoding: 1 1 3
Width: 0
GlyphClass: 1
Flags: W
LayerCount: 2
Fore
SplineSet
0 0 m 1,0,-1
 0 0 l 1,1,-1
 0 0 l 1,2,-1
 0 0 l 1,0,-1
EndSplineSet
EndChar

StartChar: space
Encoding: 32 32 4
Width: 512
GlyphClass: 1
Flags: W
LayerCount: 2
Fore
SplineSet
0 0 m 1,0,-1
 0 0 l 1,1,-1
 0 0 l 1,2,-1
 0 0 l 1,0,-1
EndSplineSet
EndChar

StartChar: quotedbl
Encoding: 34 34 5
Width: 1064
GlyphClass: 1
Flags: W
LayerCount: 2
Fore
SplineSet
731 283 m 1,0,-1
 616 282 l 1,1,-1
 572 677 l 1,2,-1
 685 678 l 1,3,-1
 731 283 l 1,0,-1
370 282 m 1,4,-1
 325 677 l 1,5,-1
 438 678 l 1,6,-1
 482 283 l 1,7,-1
 370 282 l 1,4,-1
EndSplineSet
EndChar

StartChar: asterisk
Encoding: 42 42 6
Width: 1024
GlyphClass: 1
Flags: W
LayerCount: 2
Fore
SplineSet
553 534 m 1,0,-1
 553 712 l 1,1,-1
 471 712 l 1,2,-1
 471 534 l 1,3,-1
 320 629 l 1,4,-1
 277 560 l 1,5,-1
 436 460 l 1,6,-1
 277 361 l 1,7,-1
 320 292 l 1,8,-1
 471 386 l 1,9,-1
 471 208 l 1,10,-1
 553 208 l 1,11,-1
 553 386 l 1,12,-1
 704 292 l 1,13,-1
 747 361 l 1,14,-1
 588 460 l 1,15,-1
 747 560 l 1,16,-1
 704 629 l 1,17,-1
 553 534 l 1,0,-1
EndSplineSet
EndChar

StartChar: plus
Encoding: 43 43 7
Width: 1024
GlyphClass: 1
Flags: W
LayerCount: 2
Fore
SplineSet
696 375 m 1,0,-1
 696 486 l 1,1,-1
 553 486 l 1,2,-1
 553 663 l 1,3,-1
 441 663 l 1,4,-1
 441 486 l 1,5,-1
 298 486 l 1,6,-1
 298 375 l 1,7,-1
 441 375 l 1,8,-1
 441 198 l 1,9,-1
 553 198 l 1,10,-1
 553 375 l 1,11,-1
 696 375 l 1,0,-1
EndSplineSet
EndChar

StartChar: hyphen
Encoding: 45 45 8
Width: 1024
GlyphClass: 1
Flags: W
LayerCount: 2
Fore
SplineSet
246 501 m 1,0,-1
 246 390 l 1,1,-1
 791 390 l 1,2,-1
 791 501 l 1,3,-1
 246 501 l 1,0,-1
EndSplineSet
EndChar

StartChar: period
Encoding: 46 46 9
Width: 1024
GlyphClass: 1
Flags: W
LayerCount: 2
Fore
SplineSet
408 198 m 1,0,-1
 408 0 l 1,1,-1
 616 0 l 1,2,-1
 616 198 l 1,3,-1
 408 198 l 1,0,-1
EndSplineSet
EndChar

StartChar: zero
Encoding: 48 48 10
Width: 1024
GlyphClass: 1
Flags: W
LayerCount: 2
Fore
SplineSet
393 925.5 m 2,0,1
 315.009493671 925.009493671 315.009493671 925.009493671 260 870 c 0,2,3
 205 814 205 814 205 737.5 c 2,4,-1
 205 215.5 l 2,5,6
 205 138 205 138 260 83 c 0,7,8
 315 27 315 27 393 27.5 c 2,9,-1
 631.5 29 l 2,10,11
 711.53042678 29.5033360175 711.53042678 29.5033360175 764 85 c 0,12,13
 819.5 142.482142857 819.5 142.482142857 819.5 217 c 2,14,-1
 819.5 739 l 2,15,16
 820 817 820 817 764.5 870 c 1,17,-1
 764.5 870 l 1,18,-1
 764.5 871 l 1,19,20
 708.519922987 927.484402031 708.519922987 927.484402031 631.5 927 c 2,21,-1
 393 925.5 l 2,0,1
409 824.5 m 0,22,23
 446 860 446 860 508.25 859.75 c 0,24,25
 577 860 577 860 606.5 835.5 c 0,26,27
 637.683417085 809.266331658 637.683417085 809.266331658 649.5 762 c 2,28,-1
 650.5 758 l 1,29,-1
 651.5 754 l 1,30,-1
 373 305.5 l 1,31,-1
 373 737.5 l 2,32,33
 373 790 373 790 409 824.5 c 0,22,23
615.5 130 m 0,34,35
 580 94 580 94 513.5 94 c 0,36,37
 444 94 444 94 415 120.5 c 0,38,39
 384 148 384 148 375 196.5 c 1,40,-1
 375 199.5 l 1,41,-1
 374 203.5 l 1,42,-1
 651.5 649 l 1,43,-1
 651.5 217 l 2,44,45
 652 166 652 166 615.5 130 c 0,34,35
EndSplineSet
EndChar

StartChar: one
Encoding: 49 49 11
Width: 1024
GlyphClass: 1
Flags: W
LayerCount: 2
Fore
SplineSet
390 756 m 1,0,-1
 468 756 l 1,1,-1
 468 -26 l 1,2,-1
 636 -26 l 1,3,-1
 636 915 l 1,4,-1
 557 915 l 1,5,-1
 390 818 l 1,6,-1
 390 756 l 1,0,-1
EndSplineSet
EndChar

StartChar: two
Encoding: 50 50 12
Width: 1024
GlyphClass: 1
Flags: W
LayerCount: 2
Fore
SplineSet
631 849 m 2,0,1
 687 849 687 849 718 820 c 0,2,3
 746 794 746 794 752 744 c 1,4,-1
 844 744 l 1,5,6
 830 838 830 838 780 885 c 0,7,8
 726 935 726 935 630 935 c 2,9,-1
 405 935 l 2,10,11
 316 935 316 935 258 879 c 0,12,13
 195 818 195 818 195 737 c 2,14,-1
 195 684 l 2,15,16
 195 661 195 661 208 630 c 0,17,18
 239 555 239 555 309 488 c 0,19,20
 349 449 349 449 404 405 c 0,21,22
 419 393 419 393 419 393 c 2,23,24
 474 349 474 349 515 310 c 0,25,26
 595 235 595 235 626 170 c 0,27,28
 641 138 641 138 641 111 c 2,29,-1
 641 102 l 1,30,-1
 641 92 l 1,31,-1
 189 92 l 1,32,-1
 189 7 l 1,33,-1
 846 7 l 1,34,-1
 846 102 l 2,35,36
 846 128 846 128 833 157 c 0,37,38
 809 213 809 213 726 296 c 0,39,40
 722 300 722 300 632 378 c 2,41,-1
 617 391 l 1,42,43
 561 434 561 434 520 473 c 0,44,45
 400 592 400 592 388 620 c 0,46,47
 375 653 375 653 375 682 c 2,48,-1
 375 735 l 2,49,50
 375 781 375 781 412 817 c 0,51,52
 445 849 445 849 518 849 c 2,53,-1
 631 849 l 2,0,1
EndSplineSet
EndChar

StartChar: three
Encoding: 51 51 13
Width: 1024
GlyphClass: 1
Flags: W
LayerCount: 2
Fore
SplineSet
648 64 m 1,0,-1
 208 64 l 1,1,-1
 208 -19 l 1,2,-1
 814 -19 l 1,3,-1
 813 69 l 1,4,-1
 478 292 l 1,5,-1
 615 292 l 2,6,7
 698 292 698 292 756 358 c 0,8,9
 813 423 813 423 813 490 c 2,10,-1
 813 699 l 2,11,12
 813 781 813 781 755 839 c 0,13,14
 695 897 695 897 615 897 c 2,15,-1
 407 897 l 2,16,17
 318 897 318 897 269 848 c 0,18,19
 222 801 222 801 209 709 c 1,20,-1
 294 709 l 1,21,22
 300 758 300 758 326 784 c 0,23,24
 355 812 355 812 407 812 c 2,25,-1
 546 812 l 2,26,27
 591 812 591 812 626 779 c 0,28,29
 660 747 660 747 660 699 c 2,30,-1
 660 490 l 2,31,32
 660 463 660 463 632 421 c 0,33,34
 603 376 603 376 546 376 c 2,35,-1
 313 376 l 1,36,-1
 313 287 l 1,37,-1
 648 64 l 1,0,-1
EndSplineSet
EndChar

StartChar: four
Encoding: 52 52 14
Width: 1024
GlyphClass: 1
Flags: W
LayerCount: 2
Fore
SplineSet
574 422 m 1,0,-1
 231 422 l 1,1,-1
 574 851 l 1,2,-1
 574 422 l 1,0,-1
160 -25 m 1,3,-1
 720 -24 l 1,4,-1
 718 321 l 1,5,-1
 823 321 l 1,6,-1
 823 423 l 1,7,-1
 718 423 l 1,8,-1
 718 943 l 1,9,-1
 569 942 l 1,10,-1
 158 428 l 1,11,-1
 158 320 l 1,12,-1
 574 320 l 1,13,-1
 576 7 l 1,14,-1
 160 7 l 1,15,-1
 160 -25 l 1,3,-1
EndSplineSet
EndChar

StartChar: five
Encoding: 53 53 15
Width: 1024
GlyphClass: 1
Flags: W
LayerCount: 2
Fore
SplineSet
512 487 m 6,0,-1
 814 487 l 5,1,-1
 813 897 l 5,2,-1
 208 897 l 5,3,-1
 209 812 l 5,4,-1
 625 812 l 5,5,-1
 626 571 l 5,6,-1
 407 571 l 6,7,8
 324 571 324 571 268 513 c 4,9,10
 238 482 238 482 223.5 448 c 132,-1,11
 209 414 209 414 209 373 c 6,12,-1
 209 164 l 6,13,14
 209 82 209 82 268 25 c 4,15,16
 299 -5 299 -5 333 -19.5 c 132,-1,17
 367 -34 367 -34 407 -34 c 6,18,-1
 616 -34 l 6,19,20
 704 -34 704 -34 752 14 c 132,-1,21
 800 62 800 62 813 154 c 5,22,-1
 729 154 l 5,23,24
 723 106 723 106 697 80 c 4,25,26
 668 51 668 51 616 51 c 6,27,-1
 512 51 l 6,28,29
 464 51 464 51 432 85 c 4,30,31
 398 117 398 117 398 164 c 6,32,-1
 398 373 l 6,33,34
 398 421 398 421 432 453 c 4,35,36
 464 487 464 487 512 487 c 6,0,-1
EndSplineSet
EndChar

StartChar: six
Encoding: 54 54 16
Width: 1024
GlyphClass: 2
Flags: W
LayerCount: 2
Fore
SplineSet
631 582 m 6,0,-1
 632 508 l 5,1,-1
 622 507 l 5,2,-1
 603 506 l 5,3,-1
 593 506 l 5,4,-1
 592 515 l 6,5,6
 590 534 590 534 566 542 c 4,7,8
 508 562 508 562 507 562 c 6,9,-1
 403 562 l 6,10,11
 344 562 344 562 271 507 c 5,12,13
 221 426 221 426 215 374 c 5,14,-1
 215 166 l 6,15,16
 215 76 215 76 271 33 c 4,17,18
 346 -22 346 -22 403 -22 c 6,19,-1
 613 -22 l 6,20,21
 690 -22 690 -22 744 34 c 4,22,23
 801 90 801 90 801 166 c 6,24,-1
 801 530 l 6,25,26
 801 586 801 586 777 646 c 4,27,28
 753 707 753 707 709 758 c 4,29,30
 653 819 653 819 600 841 c 4,31,32
 517 874 517 874 455 874 c 6,33,-1
 319 874 l 5,34,-1
 319 836 l 5,35,-1
 403 836 l 6,36,37
 459 836 459 836 502 812 c 4,38,39
 544 789 544 789 573 752 c 4,40,41
 604 713 604 713 616 671 c 4,42,43
 630 627 630 627 631 582 c 6,0,-1
383 166 m 6,44,-1
 383 374 l 6,45,46
 383 426 383 426 419.5 462 c 132,-1,47
 456 498 456 498 507 498 c 132,-1,48
 558 498 558 498 594 462 c 4,49,50
 631 427 631 427 631 374 c 6,51,-1
 631 166 l 6,52,53
 631 115 631 115 595 78.5 c 132,-1,54
 559 42 559 42 507.5 42 c 132,-1,55
 456 42 456 42 419.5 78.5 c 132,-1,56
 383 115 383 115 383 166 c 6,44,-1
EndSplineSet
EndChar

StartChar: seven
Encoding: 55 55 17
Width: 1024
GlyphClass: 1
Flags: W
LayerCount: 2
Fore
SplineSet
805 894 m 1,0,-1
 210 896 l 1,1,-1
 210 811 l 1,2,-1
 626 811 l 1,3,-1
 626 696 l 1,4,-1
 522 485 l 2,5,6
 470.076171875 380.224609375 470.076171875 380.224609375 444 303 c 0,7,8
 418 226 418 226 418 176 c 2,9,-1
 418 -21 l 1,10,-1
 606 -21 l 1,11,-1
 606 176 l 2,12,13
 606 194 606 194 613 233 c 0,14,15
 631 326 631 326 656 389 c 0,16,17
 677 440 677 440 702 491 c 0,18,19
 754 595 754 595 805 698 c 1,20,-1
 805 894 l 1,0,-1
EndSplineSet
EndChar

StartChar: eight
Encoding: 56 56 18
Width: 1024
GlyphClass: 1
Flags: W
LayerCount: 2
Fore
SplineSet
788 668 m 2,0,-1
 788 724 l 2,1,2
 788 806 788 806 738 864.5 c 0,3,4
 691 920 691 920 612 920 c 2,5,-1
 423 920 l 2,6,7
 346 920 346 920 298 863.5 c 0,8,9
 248 805 248 805 248 723 c 2,10,-1
 248 667 l 2,11,12
 248 571 248 571 290 525 c 0,13,14
 339.255874674 470.718015666 339.255874674 470.718015666 393 464 c 2,15,-1
 401 463 l 1,16,-1
 401 453 l 1,17,-1
 401 450 l 1,18,-1
 401 441 l 1,19,-1
 391 441 l 2,20,21
 333 441 333 441 293 379 c 0,22,23
 248 310 248 310 248 232 c 2,24,-1
 248 176 l 2,25,26
 248 110 248 110 298 43 c 0,27,28
 349 -24 349 -24 423 -24 c 2,29,-1
 612 -24 l 2,30,31
 688 -24 688 -24 738 44 c 0,32,33
 788 111 788 111 788 177 c 2,34,-1
 788 233 l 2,35,36
 788 312 788 312 745 378 c 0,37,38
 704 442 704 442 671 442 c 2,39,-1
 661 442 l 1,40,-1
 661 451 l 1,41,-1
 661 455 l 1,42,-1
 661 465 l 1,43,-1
 670 466 l 2,44,45
 711 471 711 471 757 536 c 0,46,47
 788 581 788 581 788 668 c 2,0,-1
632 722 m 2,48,49
 632 722 632 722 632 611 c 0,50,51
 632 562 632 562 599.5 522 c 128,-1,52
 567 482 567 482 518 482 c 256,53,54
 469 482 469 482 436 521 c 0,55,56
 404 560 404 560 404 611 c 2,57,-1
 404 721 l 2,58,59
 404 775 404 775 436 811 c 0,60,61
 471 849 471 849 517.5 849 c 128,-1,62
 564 849 564 849 599 811 c 0,63,64
 632 775 632 775 632 722 c 2,48,49
404 174 m 2,65,-1
 404 283 l 2,66,67
 404 346 404 346 433 380 c 128,-1,68
 462 414 462 414 518 414 c 128,-1,69
 574 414 574 414 603 380 c 128,-1,70
 632 346 632 346 632 283 c 2,71,-1
 632 174 l 2,72,73
 632 120 632 120 599 84 c 0,74,75
 566 46 566 46 518.5 46 c 128,-1,76
 471 46 471 46 436 84 c 0,77,78
 404 120 404 120 404 174 c 2,65,-1
EndSplineSet
EndChar

StartChar: nine
Encoding: 57 57 19
Width: 1024
GlyphClass: 1
Flags: W
LayerCount: 2
Fore
SplineSet
386 284 m 2,0,-1
 385 357 l 1,1,-1
 394 358 l 1,2,-1
 414 359 l 1,3,-1
 424 359 l 1,4,-1
 425 350 l 2,5,6
 427 331 427 331 451 323 c 0,7,8
 509 303 509 303 509 303 c 1,9,-1
 613 303 l 2,10,11
 673 303 673 303 746 358 c 1,12,13
 796 439 796 439 801 491 c 1,14,-1
 801 700 l 2,15,16
 802 789 802 789 746 832 c 0,17,18
 671 888 671 888 613 888 c 2,19,-1
 404 888 l 2,20,21
 327 887 327 887 273 832 c 0,22,23
 216 776 216 776 216 700 c 2,24,-1
 216 335 l 2,25,26
 216 279 216 279 240 219 c 0,27,28
 264 158 264 158 308 108 c 0,29,30
 364 46 364 46 417 24 c 0,31,32
 500 -9 500 -9 562 -9 c 2,33,-1
 697 -9 l 1,34,-1
 697 30 l 1,35,-1
 614 30 l 2,36,37
 558 29 558 29 515 53 c 0,38,39
 473 76 473 76 444 113 c 0,40,41
 413 152 413 152 401 194 c 0,42,43
 387 238 387 238 386 284 c 2,0,-1
633 700 m 2,44,-1
 633 491 l 2,45,46
 633 440 633 440 597 403.5 c 128,-1,47
 561 367 561 367 510 367 c 128,-1,48
 459 367 459 367 422 403 c 0,49,50
 385 438 385 438 385 491 c 2,51,-1
 385 700 l 2,52,53
 385 750 385 750 421.5 786.5 c 128,-1,54
 458 823 458 823 509.5 823 c 128,-1,55
 561 823 561 823 597 786.5 c 128,-1,56
 633 750 633 750 633 700 c 2,44,-1
EndSplineSet
EndChar

StartChar: colon
Encoding: 58 58 20
Width: 1024
GlyphClass: 1
Flags: W
LayerCount: 2
Fore
SplineSet
418 719 m 1,0,-1
 418 540 l 1,1,-1
 606 540 l 1,2,-1
 606 719 l 1,3,-1
 418 719 l 1,0,-1
418 190 m 1,4,-1
 418 11 l 1,5,-1
 606 11 l 1,6,-1
 606 190 l 1,7,-1
 418 190 l 1,4,-1
EndSplineSet
EndChar

StartChar: less
Encoding: 60 60 21
Width: 1024
GlyphClass: 1
Flags: W
LayerCount: 2
Fore
SplineSet
592 712 m 1,0,-1
 289 431 l 1,1,-1
 592 148 l 1,2,-1
 725 148 l 1,3,-1
 421 431 l 1,4,-1
 725 712 l 1,5,-1
 592 712 l 1,0,-1
EndSplineSet
EndChar

StartChar: equal
Encoding: 61 61 22
Width: 1024
GlyphClass: 1
Flags: W
LayerCount: 2
Fore
SplineSet
662 650 m 1,0,-1
 364 650 l 1,1,-1
 364 537 l 1,2,-1
 662 537 l 1,3,-1
 662 650 l 1,0,-1
661 355 m 1,4,-1
 363 355 l 1,5,-1
 363 242 l 1,6,-1
 661 242 l 1,7,-1
 661 355 l 1,4,-1
EndSplineSet
EndChar

StartChar: greater
Encoding: 62 62 23
Width: 1024
GlyphClass: 1
Flags: W
LayerCount: 2
Fore
SplineSet
432 148 m 1,0,-1
 735 431 l 1,1,-1
 432 712 l 1,2,-1
 299 712 l 1,3,-1
 603 431 l 1,4,-1
 299 148 l 1,5,-1
 432 148 l 1,0,-1
EndSplineSet
EndChar

StartChar: A
Encoding: 65 65 24
Width: 1064
GlyphClass: 2
Flags: W
LayerCount: 2
Fore
SplineSet
810 -12 m 1,0,1
 828 48 828 48 846 95 c 1,2,3
 766 442 766 442 684 795 c 1,4,-1
 528 795 l 1,5,6
 608 467 608 467 687 140 c 1,7,8
 527 163 527 163 367 167 c 1,9,10
 423 336 423 336 479 496 c 1,11,-1
 353 534 l 1,12,-1
 176 -13 l 1,13,-1
 308 -13 l 1,14,15
 314 7 314 7 320 16 c 1,16,17
 321 35 321 35 322 31 c 0,18,19
 568 19 568 19 810 -12 c 1,0,1
EndSplineSet
EndChar

StartChar: B
Encoding: 66 66 25
Width: 1024
GlyphClass: 2
Flags: W
LayerCount: 2
Fore
SplineSet
800 822 m 1,0,-1
 226 822 l 1,1,-1
 226 24 l 1,2,-1
 800 24 l 1,3,-1
 800 822 l 1,0,-1
690 128 m 1,4,-1
 338 128 l 1,5,-1
 338 388 l 1,6,-1
 690 388 l 1,7,-1
 690 128 l 1,4,-1
690 436 m 1,8,-1
 338 436 l 1,9,-1
 338 740 l 1,10,-1
 690 740 l 1,11,-1
 690 436 l 1,8,-1
EndSplineSet
EndChar

StartChar: C
Encoding: 67 67 26
Width: 1064
GlyphClass: 2
Flags: W
LayerCount: 2
Fore
SplineSet
341 688 m 1,0,-1
 758 688 l 1,1,2
 758 740 758 740 759 813 c 1,3,-1
 199 813 l 1,4,5
 199 386 199 386 199 -40 c 1,6,-1
 825 -40 l 1,7,8
 824 32 824 32 823 84 c 1,9,-1
 340 84 l 1,10,11
 340 386 340 386 341 688 c 1,0,-1
EndSplineSet
EndChar

StartChar: D
Encoding: 68 68 27
Width: 1064
GlyphClass: 2
Flags: W
LayerCount: 2
Fore
SplineSet
144 3 m 5,0,-1
 175 3 l 6,1,2
 271 3 271 3 362 2 c 6,3,-1
 471 2 l 6,4,5
 586 2 586 2 664 26 c 4,6,7
 734 48 734 48 774 94 c 4,8,9
 814 139 814 139 832.5 208.5 c 4,10,11
 857 297 857 297 857 372 c 4,12,13
 857 668 857 668 857 944 c 5,14,-1
 704 945 l 5,15,16
 704 835 704 835 704 705 c 5,17,18
 424 705 424 705 144 706 c 5,19,20
 144 635 144 635 144 565 c 5,21,22
 446 573 446 573 704 564 c 5,23,24
 704 478 704 478 704 392 c 4,25,26
 704 238 704 238 657 199 c 4,27,28
 592 144 592 144 451 144 c 6,29,-1
 367 144 l 6,30,31
 353 144 353 144 179 145 c 6,32,-1
 144 145 l 5,33,34
 144 84 144 84 144 3 c 5,0,-1
EndSplineSet
EndChar

StartChar: E
Encoding: 69 69 28
Width: 984
GlyphClass: 1
Flags: W
LayerCount: 2
Fore
SplineSet
784 778 m 1,0,-1
 784 890 l 1,1,-1
 198 890 l 1,2,-1
 198 778 l 1,3,-1
 542 778 l 1,4,-1
 542 603 l 1,5,-1
 198 603 l 1,6,-1
 198 491 l 1,7,-1
 542 491 l 1,8,-1
 542 168 l 2,9,10
 542 136 542 136 530 122 c 128,-1,11
 518 108 518 108 484 108 c 2,12,-1
 198 108 l 1,13,-1
 198 -27 l 1,14,-1
 542 -27 l 2,15,16
 627 -27 627 -27 651 1 c 0,17,18
 675 30 675 30 675 114 c 2,19,-1
 675 491 l 1,20,-1
 783 491 l 1,21,-1
 783 603 l 1,22,-1
 676 603 l 1,23,-1
 676 778 l 1,24,-1
 784 778 l 1,0,-1
EndSplineSet
EndChar

StartChar: F
Encoding: 70 70 29
Width: 1064
GlyphClass: 2
Flags: W
LayerCount: 2
Fore
SplineSet
383 795 m 1,0,-1
 815 795 l 1,1,-1
 815 888 l 1,2,-1
 209 888 l 1,3,4
 211 751 211 751 240 593 c 0,5,6
 253 516 253 516 273.5 460 c 128,-1,7
 294 404 294 404 320 356 c 2,8,-1
 327 342 l 1,9,-1
 335 327 l 1,10,-1
 319 327 l 1,11,-1
 307 327 l 1,12,-1
 280 310 l 1,13,-1
 268 180 l 1,14,-1
 388 251 l 1,15,-1
 393 245 l 1,16,-1
 399 238 l 2,17,18
 452 176 452 176 512 133.5 c 128,-1,19
 572 91 572 91 627.5 66.5 c 128,-1,20
 683 42 683 42 731.5 30 c 128,-1,21
 780 18 780 18 814 15 c 1,22,-1
 814 55 l 1,23,24
 692 86 692 86 581 208 c 0,25,26
 541 251 541 251 510 297 c 2,27,-1
 504 306 l 1,28,-1
 498 314 l 1,29,-1
 643 399 l 1,30,-1
 643 524 l 1,31,-1
 446 409 l 1,32,-1
 442 419 l 1,33,-1
 437 430 l 2,34,35
 407 501 407 501 392 594 c 0,36,37
 386 636 386 636 384.5 666 c 128,-1,38
 383 696 383 696 383 731 c 2,39,-1
 383 795 l 1,0,-1
EndSplineSet
EndChar

StartChar: glyph30
Encoding: 71 71 30
Width: 1064
GlyphClass: 2
Flags: W
LayerCount: 2
Fore
SplineSet
353 300 m 0,0,1
 467.126948775 243.937639198 467.126948775 243.937639198 580 252 c 2,2,-1
 594 253 l 1,3,-1
 604 253 l 1,4,-1
 605 244 l 2,5,6
 619 119 619 119 781 58 c 1,7,-1
 790 163 l 1,8,9
 709.366801383 199.832448751 709.366801383 199.832448751 709 293 c 2,10,-1
 708 547 l 1,11,-1
 578 547 l 1,12,-1
 578 362 l 1,13,14
 565 362 565 362 562 362 c 0,15,16
 489 362 489 362 454 380 c 0,17,18
 387 415 387 415 388 478 c 0,19,20
 388 703 388 703 388 710 c 2,21,-1
 388 720 l 1,22,-1
 778 720 l 1,23,-1
 777 836 l 1,24,-1
 258 836 l 1,25,-1
 260 465 l 2,26,27
 261 345 261 345 353 300 c 0,0,1
EndSplineSet
EndChar

StartChar: H
Encoding: 72 72 31
Width: 1024
GlyphClass: 2
Flags: W
LayerCount: 2
Fore
SplineSet
198 442 m 1,0,-1
 343 442 l 1,1,2
 358 327 358 327 388 245 c 256,3,4
 418 163 418 163 471 107 c 128,-1,5
 524 51 524 51 603 19 c 0,6,7
 683 -14 683 -14 797 -29 c 1,8,-1
 811 30 l 1,9,10
 712 53 712 53 654 95 c 0,11,12
 597 136 597 136 568 190 c 128,-1,13
 539 244 539 244 532 309 c 0,14,15
 524 373 524 373 524 442 c 1,16,-1
 823 442 l 1,17,-1
 823 576 l 1,18,-1
 198 576 l 1,19,-1
 198 442 l 1,0,-1
198 863 m 1,20,-1
 823 863 l 1,21,-1
 823 731 l 1,22,-1
 198 731 l 1,23,-1
 198 863 l 1,20,-1
EndSplineSet
EndChar

StartChar: I
Encoding: 73 73 32
Width: 1044
GlyphClass: 1
Flags: W
LayerCount: 2
Fore
SplineSet
576 103 m 1,0,1
 576 360 576 360 576 617 c 1,2,-1
 778 617 l 1,3,4
 778 663 778 663 778 729 c 1,5,-1
 228 729 l 1,6,7
 228 663 228 663 228 617 c 1,8,-1
 430 617 l 1,9,10
 430 360 430 360 430 103 c 1,11,-1
 195 103 l 1,12,13
 195 54 195 54 195 -14 c 1,14,-1
 811 -14 l 1,15,16
 811 54 811 54 811 103 c 1,17,-1
 576 103 l 1,0,1
EndSplineSet
EndChar

StartChar: J
Encoding: 74 74 33
Width: 1024
GlyphClass: 2
Flags: W
LayerCount: 2
Fore
SplineSet
406 331.5 m 128,-1,1
 363 425 363 425 363 549 c 2,2,-1
 363 823 l 1,3,-1
 200 823 l 1,4,-1
 200 549 l 2,5,6
 200 375 200 375 262 262 c 128,-1,7
 324 149 324 149 413 81 c 128,-1,8
 502 13 502 13 598.5 -16 c 128,-1,9
 695 -45 695 -45 765 -50 c 0,10,11
 768 -47 768 -47 771 -46 c 2,12,-1
 771 23 l 1,13,14
 715 34 715 34 644 71 c 0,15,16
 574 109 574 109 511.5 173.5 c 128,-1,0
 449 238 449 238 406 331.5 c 128,-1,1
824 833 m 1,17,-1
 774 412 l 1,18,-1
 613 412 l 1,19,-1
 663 833 l 1,20,-1
 824 833 l 1,17,-1
EndSplineSet
EndChar

StartChar: K
Encoding: 75 75 34
Width: 1064
GlyphClass: 2
Flags: W
LayerCount: 2
Fore
SplineSet
865 20 m 1,0,-1
 199 20 l 1,1,2
 200 93 200 93 200 166 c 1,3,-1
 866 166 l 1,4,5
 866 93 866 93 865 20 c 1,0,-1
252 782 m 1,6,-1
 252 651 l 1,7,-1
 812 651 l 1,8,-1
 812 782 l 1,9,-1
 252 782 l 1,6,-1
EndSplineSet
EndChar

StartChar: L
Encoding: 76 76 35
Width: 1064
GlyphClass: 2
Flags: W
LayerCount: 2
Fore
SplineSet
293 0 m 1,0,-1
 171 0 l 1,1,2
 256 446 256 446 340 891 c 1,3,-1
 466 891 l 1,4,5
 380 446 380 446 293 0 c 1,0,-1
694 890 m 1,6,-1
 579 888 l 1,7,8
 583 403 583 403 806 42 c 1,9,-1
 882 70 l 1,10,11
 696 446 696 446 694 890 c 1,6,-1
EndSplineSet
EndChar

StartChar: M
Encoding: 77 77 36
Width: 1024
GlyphClass: 2
Flags: W
LayerCount: 2
Fore
SplineSet
349 393 m 2,0,-1
 349 475 l 1,1,-1
 812 475 l 1,2,-1
 812 587 l 1,3,-1
 207 587 l 1,4,-1
 207 393 l 2,5,6
 207 225 207 225 275 138 c 0,7,8
 342 52 342 52 432 17 c 0,9,10
 521 -18 521 -18 605.5 -19 c 128,-1,11
 690 -20 690 -20 732 -20 c 1,12,-1
 732 45 l 1,13,14
 688 45 688 45 629 48 c 0,15,16
 549 51 549 51 497 77 c 0,17,18
 437 105 437 105 393 179 c 256,19,20
 349 253 349 253 349 393 c 2,0,-1
789 846 m 1,21,-1
 228 845 l 1,22,-1
 218 719 l 1,23,-1
 794 720 l 1,24,-1
 789 846 l 1,21,-1
EndSplineSet
EndChar

StartChar: N
Encoding: 78 78 37
Width: 1024
GlyphClass: 2
Flags: W
LayerCount: 2
Fore
SplineSet
502 590 m 1,0,-1
 503 474 l 1,1,-1
 825 474 l 1,2,-1
 824 590 l 1,3,-1
 502 590 l 1,0,-1
500 861 m 1,4,-1
 501 745 l 1,5,-1
 823 745 l 1,6,-1
 822 861 l 1,7,-1
 500 861 l 1,4,-1
817 -24 m 1,8,-1
 814 149 l 1,9,10
 621 151 621 151 509 227 c 0,11,12
 397 304 397 304 340 397 c 0,13,14
 284 489 284 489 270 567 c 2,15,-1
 259 635 l 1,16,-1
 210 635 l 1,17,-1
 214 535 l 2,18,19
 218 429 218 429 271 297 c 0,20,21
 313 192 313 192 455 70 c 0,22,23
 562 -22 562 -22 817 -24 c 1,8,-1
EndSplineSet
EndChar

StartChar: O
Encoding: 79 79 38
Width: 1064
GlyphClass: 1
Flags: W
LayerCount: 2
Fore
SplineSet
390 728 m 5,0,-1
 824 728 l 5,1,-1
 824 840 l 5,2,-1
 587 840 l 5,3,-1
 587 929 l 5,4,-1
 438 929 l 5,5,-1
 438 840 l 5,6,-1
 199 840 l 5,7,8
 201 728 201 728 234 636 c 4,9,10
 266 547 266 547 326 477 c 5,11,-1
 333 470 l 5,12,-1
 199 365 l 5,13,-1
 199 214 l 5,14,-1
 437 395 l 5,15,-1
 437 0 l 5,16,-1
 199 0 l 5,17,-1
 199 -32 l 5,18,-1
 824 -32 l 5,19,-1
 824 0 l 5,20,-1
 586 0 l 5,21,-1
 586 304 l 5,22,-1
 600 298 l 5,23,24
 668 274 668 274 726 262 c 4,25,26
 782 251 782 251 824 249 c 5,27,-1
 823 321 l 5,28,29
 793.885742188 327.750976562 793.885742188 327.750976562 684 368 c 4,30,31
 512 430 512 430 452 558 c 4,32,33
 412.208984375 639.1640625 412.208984375 639.1640625 393 716 c 6,34,-1
 390 728 l 5,0,-1
EndSplineSet
EndChar

StartChar: P
Encoding: 80 80 39
Width: 1064
GlyphClass: 1
Flags: W
LayerCount: 2
Fore
SplineSet
199 382 m 1,0,-1
 199 250 l 1,1,-1
 345 323 l 1,2,-1
 350 313 l 2,3,4
 386 240 386 240 439 181 c 0,5,6
 492 124 492 124 555.5 82.5 c 128,-1,7
 619 41 619 41 689 20 c 0,8,9
 756 -1 756 -1 824 -1 c 1,10,-1
 824 57 l 1,11,12
 763 65 763 65 714 92 c 0,13,14
 607 146 607 146 542 263 c 0,15,16
 511 319 511 319 489 390 c 1,17,-1
 719 499 l 1,18,-1
 719 632 l 1,19,-1
 462 510 l 1,20,-1
 461 525 l 1,21,-1
 459 564 l 1,22,-1
 446 732 l 1,23,-1
 444 762 l 1,24,-1
 272 762 l 1,25,-1
 274 744 l 1,26,-1
 279 674 l 1,27,-1
 293 518 l 2,28,29
 296 475 296 475 306 436 c 1,30,-1
 199 382 l 1,0,-1
EndSplineSet
EndChar

StartChar: Q
Encoding: 81 81 40
Width: 1064
GlyphClass: 1
Flags: W
LayerCount: 2
Fore
SplineSet
741 546 m 1,0,-1
 814 546 l 1,1,-1
 814 660 l 1,2,-1
 741 660 l 1,3,-1
 741 836 l 1,4,-1
 614 836 l 1,5,-1
 614 660 l 1,6,-1
 410 660 l 1,7,-1
 410 836 l 1,8,-1
 283 836 l 1,9,-1
 283 660 l 1,10,-1
 210 660 l 1,11,-1
 210 546 l 1,12,-1
 283 546 l 1,13,-1
 283 389 l 2,14,15
 283 260 283 260 328 182 c 0,16,17
 376 104 376 104 446 61 c 128,-1,18
 516 18 516 18 593 2 c 0,19,20
 659 -11 659 -11 711 -16 c 1,21,-1
 711 29 l 1,22,23
 673 36 673 36 622.5 53 c 128,-1,24
 572 70 572 70 523 111.5 c 128,-1,25
 474 153 474 153 443 220 c 0,26,27
 410 288 410 288 410 389 c 2,28,-1
 410 546 l 1,29,-1
 614 546 l 1,30,-1
 614 351 l 1,31,-1
 741 351 l 1,32,-1
 741 546 l 1,0,-1
EndSplineSet
EndChar

StartChar: R
Encoding: 82 82 41
Width: 984
GlyphClass: 1
Flags: W
LayerCount: 2
Fore
SplineSet
195 27 m 1,0,-1
 781 91 l 1,1,-1
 783 211 l 1,2,-1
 197 148 l 1,3,-1
 195 27 l 1,0,-1
185 15 m 1024,4,-1
197 664 m 1,5,-1
 783 728 l 1,6,-1
 785 853 l 1,7,-1
 199 790 l 1,8,-1
 197 664 l 1,5,-1
269 354 m 1,9,-1
 729 410 l 1,10,-1
 733 521 l 1,11,-1
 273 472 l 1,12,-1
 269 354 l 1,9,-1
EndSplineSet
EndChar

StartChar: S
Encoding: 83 83 42
Width: 1064
GlyphClass: 2
Flags: W
LayerCount: 2
Fore
SplineSet
369 601 m 2,0,-1
 369 874 l 1,1,-1
 220 875 l 1,2,-1
 220 602 l 2,3,4
 220 429 220 429 282 316 c 128,-1,5
 344 203 344 203 450 136 c 128,-1,6
 556 69 556 69 660 39 c 0,7,8
 777 6 777 6 827 6 c 0,9,10
 833 6 833 6 833 10 c 2,11,-1
 833 79 l 1,12,13
 660 114 660 114 522 242 c 0,14,15
 425 333 425 333 402 396 c 0,16,17
 369 486 369 486 369 601 c 2,0,-1
819 506 m 1,18,-1
 721 506 l 1,19,-1
 780 884 l 1,20,-1
 877 884 l 1,21,-1
 819 506 l 1,18,-1
510 506 m 1,22,-1
 569 884 l 1,23,-1
 666 884 l 1,24,-1
 606 506 l 1,25,-1
 510 506 l 1,22,-1
EndSplineSet
EndChar

StartChar: T
Encoding: 84 84 43
Width: 1064
GlyphClass: 1
Flags: W
LayerCount: 2
Fore
SplineSet
840 14 m 1,0,-1
 840 14 l 1,1,2
 715 24 715 24 591 15 c 1,3,-1
 605 686 l 1,4,-1
 829 685 l 1,5,-1
 829 787 l 1,6,-1
 611 788 l 1,7,8
 611 856 611 856 611 924 c 1,9,-1
 487 923 l 1,10,11
 487 855 487 855 487 787 c 1,12,-1
 260 787 l 1,13,-1
 260 685 l 1,14,-1
 481 685 l 1,15,-1
 467 14 l 1,16,-1
 300 14 l 1,17,-1
 300 14 l 1,18,19
 300 94 300 94 325 161 c 0,20,21
 346 217 346 217 373 359 c 0,22,23
 387.464285714 434.214285714 387.464285714 434.214285714 390 490 c 2,24,-1
 392 534 l 1,25,-1
 281 534 l 1,26,-1
 279 489 l 2,27,28
 276 429 276 429 263 355 c 0,29,30
 242 233 242 233 216 152 c 0,31,32
 193 81 193 81 193 14 c 2,33,-1
 193 -20 l 1,34,-1
 843 -20 l 1,35,-1
 843 14 l 2,36,37
 843 81 843 81 838 150 c 0,38,39
 833 216 833 216 809 355 c 0,40,41
 795.366589327 435.751740139 795.366589327 435.751740139 793 489 c 2,42,-1
 791 534 l 1,43,-1
 682 534 l 1,44,-1
 684 491 l 2,45,46
 686 439 686 439 701 359 c 0,47,48
 712 297 712 297 735 249 c 0,49,50
 745 229 745 229 781 166 c 0,51,52
 809 117 809 117 822 91 c 0,53,54
 840 53 840 53 840 14 c 1,0,-1
EndSplineSet
EndChar

StartChar: U
Encoding: 85 85 44
Width: 1024
GlyphClass: 1
Flags: W
LayerCount: 2
Fore
SplineSet
350 739 m 1,0,-1
 672 739 l 1,1,-1
 672 473 l 1,2,-1
 814 473 l 1,3,-1
 814 852 l 1,4,-1
 208 852 l 1,5,-1
 208 394 l 2,6,7
 208 223 208 223 275 139 c 0,8,9
 342 53 342 53 431.5 18 c 128,-1,10
 521 -17 521 -17 610 -19 c 0,11,12
 690 -20 690 -20 733 -20 c 1,13,-1
 733 37 l 1,14,15
 688 37 688 37 630 40 c 0,16,17
 561 42 561 42 499 74 c 128,-1,18
 437 106 437 106 393.5 179.5 c 128,-1,19
 350 253 350 253 350 394 c 2,20,-1
 350 739 l 1,0,-1
EndSplineSet
EndChar

StartChar: V
Encoding: 86 86 45
Width: 1044
GlyphClass: 2
Flags: W
LayerCount: 2
Fore
SplineSet
812 899 m 5,0,-1
 194 899 l 5,1,-1
 194 875 l 5,2,-1
 444 875 l 5,3,-1
 444 725 l 5,4,-1
 194 725 l 5,5,-1
 194 376 l 6,6,7
 194 205 194 205 276 122 c 4,8,9
 361 36 361 36 464 0.5 c 4,10,11
 566.686523438 -34.8916015625 566.686523438 -34.8916015625 652 -36 c 6,12,-1
 729 -37 l 5,13,-1
 729 20 l 5,14,-1
 679 22 l 5,15,-1
 678 22 l 6,16,17
 622 22 622 22 538.5 57 c 4,18,19
 465 88 465 88 400 162 c 4,20,21
 336 235 336 235 336 376 c 6,22,-1
 336 591 l 5,23,-1
 695 591 l 5,24,-1
 695 338 l 5,25,-1
 812 338 l 5,26,-1
 812 725 l 5,27,-1
 590 725 l 5,28,-1
 590 875 l 5,29,-1
 812 875 l 5,30,-1
 812 899 l 5,0,-1
EndSplineSet
EndChar

StartChar: W
Encoding: 87 87 46
Width: 1064
GlyphClass: 1
Flags: W
LayerCount: 2
Fore
SplineSet
484 732 m 5,0,-1
 484 732 l 5,1,-1
 823 732 l 5,2,3
 823 778 823 778 823 845 c 5,4,-1
 310 845 l 5,5,6
 310 780 310 780 313 710 c 4,7,8
 321 554 321 554 339 430 c 4,9,10
 348 373 348 373 359 338 c 5,11,-1
 320 280 l 6,12,13
 286 228 286 228 251 149 c 4,14,15
 216 67 216 67 207 19 c 4,16,17
 204 10 204 10 200 -8 c 5,18,19
 272 -3 272 -3 344 -7 c 5,20,21
 346 5 346 5 347 10 c 4,22,23
 352 47 352 47 373 94 c 4,24,25
 395 142 395 142 417 163 c 5,26,27
 428 180 428 180 438 182 c 5,28,29
 442 193 442 193 446 190 c 5,30,31
 450 193 450 193 453 181 c 5,32,33
 494 138 494 138 542 108 c 4,34,35
 631 50 631 50 742 18 c 4,36,37
 784 5 784 5 823 -5 c 5,38,39
 823 33 823 33 823 53 c 5,40,41
 723 105 723 105 658 159 c 5,42,43
 589 211 589 211 550 283 c 4,44,45
 512 359 512 359 498 466 c 132,-1,46
 484 573 484 573 484 732 c 5,0,-1
EndSplineSet
EndChar

StartChar: X
Encoding: 88 88 47
Width: 1044
GlyphClass: 2
Flags: W
LayerCount: 2
Fore
SplineSet
446 705 m 1,0,-1
 192 705 l 1,1,-1
 192 603 l 1,2,-1
 439 603 l 1,3,-1
 422 338 l 1,4,-1
 192 338 l 1,5,-1
 193 226 l 1,6,-1
 415 226 l 1,7,-1
 400 -15 l 1,8,-1
 546 -15 l 1,9,-1
 561 226 l 1,10,-1
 808 226 l 1,11,-1
 808 338 l 1,12,-1
 568 338 l 1,13,-1
 585 603 l 1,14,-1
 808 603 l 1,15,-1
 807 705 l 1,16,-1
 592 705 l 1,17,18
 596 761 596 761 600 838 c 1,19,-1
 454 838 l 1,20,21
 450 761 450 761 446 705 c 1,0,-1
EndSplineSet
EndChar

StartChar: Y
Encoding: 89 89 48
Width: 1064
GlyphClass: 1
Flags: W
LayerCount: 2
Fore
SplineSet
469 596 m 1,0,-1
 601 596 l 1,1,-1
 603 590 l 1,2,3
 632 523 632 523 687 462 c 0,4,5
 732 412 732 412 813 391 c 1,6,-1
 813 449 l 1,7,8
 764 482 764 482 744 519 c 0,9,10
 721 561 721 561 711 610 c 128,-1,11
 701 659 701 659 698.5 724 c 128,-1,12
 696 789 696 789 696 854 c 2,13,-1
 696 874 l 1,14,-1
 696 884 l 1,15,-1
 812 884 l 1,16,-1
 812 908 l 1,17,-1
 208 908 l 1,18,-1
 208 884 l 1,19,-1
 545 884 l 1,20,-1
 546 731 l 1,21,-1
 209 731 l 1,22,-1
 209 597 l 1,23,-1
 319 597 l 1,24,-1
 319 382 l 2,25,26
 319 242 319 242 368.5 160 c 128,-1,27
 418 78 418 78 491.5 36 c 128,-1,28
 565 -6 565 -6 647 -19 c 0,29,30
 722 -30 722 -30 781 -32 c 1,31,-1
 781 26 l 1,32,33
 735 29 735 29 683 42 c 0,34,35
 628 55 628 55 579 93 c 0,36,37
 528 134 528 134 499 200 c 0,38,39
 469 269 469 269 469 382 c 2,40,-1
 469 596 l 1,0,-1
EndSplineSet
EndChar

StartChar: Z
Encoding: 90 90 49
Width: 1024
GlyphClass: 2
Flags: W
LayerCount: 2
Fore
SplineSet
232 840 m 5,0,-1
 620 840 l 5,1,-1
 620 705 l 5,2,-1
 210 202 l 5,3,-1
 210 -4 l 5,4,-1
 816 -4 l 5,5,-1
 816 44 l 5,6,-1
 406 44 l 5,7,-1
 406 177 l 5,8,-1
 816 680 l 5,9,-1
 816 887 l 5,10,-1
 232 887 l 5,11,-1
 232 840 l 5,0,-1
EndSplineSet
EndChar

StartChar: underscore
Encoding: 95 95 50
Width: 1024
GlyphClass: 1
Flags: W
LayerCount: 2
Fore
SplineSet
200 2 m 1,0,-1
 456 2 l 1,1,-1
 455 101 l 1,2,-1
 199 101 l 1,3,-1
 200 2 l 1,4,-1
 200 2 l 1,0,-1
574 2 m 1,5,-1
 822 2 l 1,6,-1
 821 101 l 1,7,-1
 573 101 l 1,8,-1
 574 2 l 1,9,-1
 574 2 l 1,5,-1
EndSplineSet
EndChar

StartChar: a
Encoding: 97 97 51
Width: 1064
GlyphClass: 1
Flags: W
LayerCount: 2
Fore
SplineSet
698 569 m 2,0,-1
 698 579 l 1,1,-1
 824 579 l 1,2,-1
 824 681 l 1,3,-1
 698 681 l 1,4,5
 698 738 698 738 698 814 c 1,6,-1
 549 814 l 1,7,8
 549 738 549 738 549 681 c 1,9,-1
 199 681 l 1,10,-1
 199 41 l 2,11,12
 199 8 199 8 225.5 -16 c 128,-1,13
 252 -40 252 -40 290 -40 c 2,14,-1
 469 -40 l 1,15,16
 469 21 469 21 469 61 c 1,17,18
 431 72 431 72 394 62 c 1,19,20
 393 69 393 69 393 62 c 1,21,22
 371 63 371 63 356 75 c 0,23,24
 340 87 340 87 340 104 c 2,25,-1
 340 579 l 1,26,-1
 550 579 l 1,27,-1
 550 569 l 2,28,29
 550 482 550 482 560.5 381.5 c 128,-1,30
 571 281 571 281 603 192 c 0,31,32
 634 106 634 106 693 42 c 0,33,34
 745 -17 745 -17 826 -38 c 1,35,36
 826 0 826 0 826 20 c 1,37,38
 781 49 781 49 755 103 c 0,39,40
 708 208 708 208 701 394 c 0,41,42
 698 480 698 480 698 569 c 2,0,-1
EndSplineSet
EndChar

StartChar: b
Encoding: 98 98 52
Width: 1064
GlyphClass: 1
Flags: W
LayerCount: 2
Fore
SplineSet
783 706 m 1,0,-1
 823 706 l 1,1,2
 823 763 823 763 823 840 c 1,3,-1
 792 840 l 1,4,-1
 781 840 l 1,5,6
 783 864 783 864 785 907 c 1,7,-1
 640 907 l 1,8,9
 638 864 638 864 636 840 c 1,10,-1
 198 840 l 1,11,-1
 198 658 l 2,12,13
 198 586 198 586 217 530 c 0,14,15
 257 417 257 417 349 373 c 0,16,17
 393 352 393 352 440 345 c 1,18,-1
 440 392 l 1,19,20
 357 432 357 432 338.5 510 c 128,-1,21
 320 588 320 588 320 706 c 1,22,-1
 320 706 l 1,23,-1
 628 706 l 1,24,25
 606 374 606 374 584 42 c 1,26,-1
 271 42 l 1,27,28
 271 36 271 36 271 10 c 1,29,-1
 823 10 l 1,30,31
 823 36 823 36 823 42 c 1,32,33
 778 52 778 52 732 42 c 1,34,35
 753 374 753 374 774 706 c 1,36,-1
 783 706 l 1,0,-1
EndSplineSet
EndChar

StartChar: c
Encoding: 99 99 53
Width: 984
GlyphClass: 1
Flags: W
LayerCount: 2
Fore
SplineSet
753 271 m 2,0,-1
 753 588 l 1,1,-1
 763 588 l 1,2,-1
 787 588 l 1,3,-1
 787 730 l 1,4,-1
 763 730 l 1,5,-1
 753 730 l 1,6,-1
 753 907 l 1,7,-1
 227 907 l 1,8,-1
 227 883 l 1,9,-1
 604 883 l 1,10,-1
 604 730 l 1,11,-1
 197 730 l 1,12,-1
 197 537 l 2,13,14
 197 461 197 461 217 409 c 0,15,16
 259 299 259 299 353 252 c 0,17,18
 393 232 393 232 437 225 c 1,19,-1
 437 284 l 1,20,21
 362 323 362 323 352.5 395.5 c 128,-1,22
 343 468 343 468 343 586 c 2,23,-1
 343 596 l 1,24,-1
 604 596 l 1,25,-1
 604 289 l 2,26,27
 604 172 604 172 567.5 127 c 128,-1,28
 531 82 531 82 435 82 c 2,29,-1
 244 82 l 1,30,-1
 244 -33 l 1,31,-1
 450 -33 l 2,32,33
 537 -33 537 -33 594 -13 c 256,34,35
 651 7 651 7 686 44 c 0,36,37
 722 82 722 82 737.5 139 c 128,-1,38
 753 196 753 196 753 271 c 2,0,-1
EndSplineSet
EndChar

StartChar: d
Encoding: 100 100 54
Width: 1064
GlyphClass: 1
Flags: W
LayerCount: 2
Fore
SplineSet
359.5 539 m 128,-1,1
 356 572 356 572 356 607 c 2,2,-1
 356 764 l 1,3,-1
 612 764 l 1,4,-1
 614 757 l 1,5,-1
 623 729 l 2,6,7
 631 700 631 700 651.5 658 c 128,-1,8
 672 616 672 616 705 568 c 0,9,10
 738 521 738 521 784 481 c 1,11,-1
 810 519 l 1,12,-1
 708 877 l 1,13,-1
 213 877 l 1,14,-1
 213 608 l 2,15,16
 213 433 213 433 274 319 c 0,17,18
 336 205 336 205 428 136 c 0,19,20
 521 68 521 68 620 40 c 0,21,22
 717 11 717 11 784 6 c 1,23,-1
 784 62 l 1,24,25
 675 85 675 85 580 148 c 0,26,27
 531 181 531 181 492 223 c 0,28,29
 452 266 452 266 423 320 c 2,30,-1
 418 329 l 1,31,-1
 617 436 l 1,32,-1
 617 517 l 1,33,-1
 371 465 l 1,34,0
 363 506 363 506 359.5 539 c 128,-1,1
EndSplineSet
EndChar

StartChar: e
Encoding: 101 101 55
Width: 1044
GlyphClass: 1
Flags: W
LayerCount: 2
Fore
SplineSet
801 891 m 1,0,-1
 801 914 l 1,1,-1
 205 914 l 1,2,-1
 205 891 l 1,3,-1
 298 891 l 1,4,-1
 297 717 l 1,5,-1
 204 717 l 1,6,-1
 204 603 l 1,7,-1
 297 603 l 1,8,-1
 297 -26 l 1,9,-1
 432 -26 l 1,10,-1
 432 240 l 1,11,-1
 450 215 l 1,12,-1
 469 188 l 1,13,-1
 479 175 l 2,14,15
 516 127 516 127 547 101 c 0,16,17
 592 62 592 62 641 35 c 0,18,19
 722 -10 722 -10 801 -23 c 1,20,-1
 801 21 l 1,21,22
 760 32 760 32 716 64 c 0,23,24
 640 121 640 121 619 160 c 0,25,26
 570 254 570 254 544 295 c 0,27,28
 514 341 514 341 514 457 c 2,29,-1
 514 602 l 1,30,-1
 799 602 l 1,31,-1
 799 717 l 1,32,-1
 432 717 l 1,33,-1
 433 891 l 1,34,-1
 801 891 l 1,0,-1
EndSplineSet
EndChar

StartChar: f
Encoding: 102 102 56
Width: 1064
GlyphClass: 1
Flags: W
LayerCount: 2
Fore
SplineSet
400 927 m 1,0,-1
 400 728 l 1,1,-1
 214 728 l 1,2,-1
 214 616 l 1,3,-1
 400 616 l 1,4,-1
 400 426 l 2,5,6
 400 303 400 303 439 225.5 c 128,-1,7
 478 148 478 148 537.5 103.5 c 128,-1,8
 597 59 597 59 668 40 c 0,9,10
 732 23 732 23 789 16 c 1,11,-1
 789 80 l 1,12,13
 753 87 753 87 710 106 c 0,14,15
 665 126 665 126 629 166 c 0,16,17
 597 202 597 202 572 269 c 0,18,19
 550 324 550 324 550 426 c 2,20,-1
 550 616 l 1,21,-1
 814 616 l 1,22,-1
 814 728 l 1,23,-1
 550 728 l 1,24,-1
 550 927 l 1,25,-1
 400 927 l 1,0,-1
EndSplineSet
EndChar

StartChar: g
Encoding: 103 103 57
Width: 1064
GlyphClass: 1
Flags: W
LayerCount: 2
Fore
SplineSet
330 641 m 2,0,-1
 331 724 l 1,1,-1
 817 724 l 1,2,-1
 816 828 l 1,3,-1
 208 828 l 1,4,-1
 208 641 l 2,5,6
 208 565 208 565 219 477 c 0,7,8
 228 401 228 401 263 328 c 0,9,10
 296 258 296 258 361 200 c 5,11,12
 501 105 501 105 530 101 c 5,13,14
 530 101 530 101 554 100 c 1,15,-1
 556 96 l 1,16,17
 537 51 537 51 520 -5 c 1,18,-1
 646 -5 l 1,19,-1
 762 385 l 1,20,-1
 638 385 l 1,21,-1
 583 198 l 1,22,-1
 572 203 l 1,23,-1
 561 209 l 1,24,25
 437 272 437 272 381 383 c 0,26,27
 328 488 328 488 330 641 c 2,0,-1
EndSplineSet
EndChar

StartChar: h
Encoding: 104 104 58
Width: 1024
GlyphClass: 1
Flags: W
LayerCount: 2
Fore
SplineSet
731 -8 m 1,0,1
 688 -8 688 -8 597 -7 c 0,2,3
 507 -6 507 -6 415.5 30 c 128,-1,4
 324 66 324 66 255 154 c 256,5,6
 186 242 186 242 186 415 c 0,7,8
 186 532 186 532 186 620 c 256,9,10
 186 708 186 708 186 766.5 c 128,-1,11
 186 825 186 825 186 855 c 0,12,13
 186 884 186 884 186 884 c 1,14,-1
 348 884 l 1,15,16
 348 884 348 884 348 833 c 256,17,18
 348 782 348 782 348 709 c 128,-1,19
 348 636 348 636 348 555 c 256,20,21
 348 474 348 474 348 415 c 0,22,23
 348 278 348 278 390 207 c 256,24,25
 432 136 432 136 492 105 c 128,-1,26
 552 74 552 74 617 71 c 0,27,28
 683 69 683 69 731 69 c 1,29,-1
 731 -8 l 1,0,1
649 885 m 1,30,-1
 649 485 l 1,31,-1
 812 485 l 1,32,-1
 812 885 l 1,33,-1
 649 885 l 1,30,-1
EndSplineSet
EndChar

StartChar: i
Encoding: 105 105 59
Width: 1024
GlyphClass: 1
Flags: W
LayerCount: 2
Fore
SplineSet
476 901 m 1,0,-1
 552 901 l 1,1,-1
 552 -5 l 1,2,-1
 476 -5 l 1,3,-1
 476 901 l 1,0,-1
EndSplineSet
EndChar

StartChar: bar
Encoding: 124 124 60
Width: 1024
GlyphClass: 1
Flags: W
LayerCount: 2
Fore
SplineSet
826 540 m 1,0,-1
 774 540 l 1,1,-1
 772 893 l 1,2,-1
 824 893 l 1,3,-1
 826 540 l 1,0,-1
824 -44 m 1,4,-1
 772 -44 l 1,5,-1
 772 363 l 1,6,-1
 824 363 l 1,7,-1
 824 -44 l 1,4,-1
EndSplineSet
EndChar

StartChar: uni2F47
Encoding: 12103 12103 61
Width: 1024
GlyphClass: 2
Flags: W
LayerCount: 2
Fore
SplineSet
800 822 m 1,0,-1
 226 822 l 1,1,-1
 226 24 l 1,2,-1
 800 24 l 1,3,-1
 800 822 l 1,0,-1
690 128 m 1,4,-1
 338 128 l 1,5,-1
 338 388 l 1,6,-1
 690 388 l 1,7,-1
 690 128 l 1,4,-1
690 436 m 1,8,-1
 338 436 l 1,9,-1
 338 740 l 1,10,-1
 690 740 l 1,11,-1
 690 436 l 1,8,-1
EndSplineSet
EndChar

StartChar: uni30A0
Encoding: 12448 12448 63
Width: 1024
GlyphClass: 2
Flags: W
LayerCount: 2
Fore
SplineSet
666 624 m 1,0,-1
 358 624 l 1,1,-1
 358 501 l 1,2,-1
 666 501 l 1,3,-1
 666 624 l 1,0,-1
666 360 m 1,4,-1
 358 360 l 1,5,-1
 358 237 l 1,6,-1
 666 237 l 1,7,-1
 666 360 l 1,4,-1
EndSplineSet
EndChar

StartChar: uni30A5
Encoding: 12453 12453 64
Width: 1044
GlyphClass: 2
Flags: W
LayerCount: 2
Fore
SplineSet
812 899 m 5,0,-1
 194 899 l 5,1,-1
 194 875 l 5,2,-1
 444 875 l 5,3,-1
 444 725 l 5,4,-1
 194 725 l 5,5,-1
 194 376 l 6,6,7
 194 205 194 205 276 122 c 4,8,9
 361 36 361 36 464 0.5 c 4,10,11
 566.686523438 -34.8916015625 566.686523438 -34.8916015625 652 -36 c 6,12,-1
 729 -37 l 5,13,-1
 729 20 l 5,14,-1
 679 22 l 5,15,-1
 678 22 l 6,16,17
 622 22 622 22 538.5 57 c 4,18,19
 465 88 465 88 400 162 c 4,20,21
 336 235 336 235 336 376 c 6,22,-1
 336 591 l 5,23,-1
 695 591 l 5,24,-1
 695 338 l 5,25,-1
 812 338 l 5,26,-1
 812 725 l 5,27,-1
 590 725 l 5,28,-1
 590 875 l 5,29,-1
 812 875 l 5,30,-1
 812 899 l 5,0,-1
EndSplineSet
EndChar

StartChar: uni30A6
Encoding: 12454 12454 65
Width: 1044
GlyphClass: 2
Flags: W
LayerCount: 2
Fore
SplineSet
812 899 m 5,0,-1
 194 899 l 5,1,-1
 194 875 l 5,2,-1
 444 875 l 5,3,-1
 444 725 l 5,4,-1
 194 725 l 5,5,-1
 194 376 l 6,6,7
 194 205 194 205 276 122 c 4,8,9
 361 36 361 36 464 0.5 c 4,10,11
 566.686523438 -34.8916015625 566.686523438 -34.8916015625 652 -36 c 6,12,-1
 729 -37 l 5,13,-1
 729 20 l 5,14,-1
 679 22 l 5,15,-1
 678 22 l 6,16,17
 622 22 622 22 538.5 57 c 4,18,19
 465 88 465 88 400 162 c 4,20,21
 336 235 336 235 336 376 c 6,22,-1
 336 591 l 5,23,-1
 695 591 l 5,24,-1
 695 338 l 5,25,-1
 812 338 l 5,26,-1
 812 725 l 5,27,-1
 590 725 l 5,28,-1
 590 875 l 5,29,-1
 812 875 l 5,30,-1
 812 899 l 5,0,-1
EndSplineSet
EndChar

StartChar: uni30A8
Encoding: 12456 12456 66
Width: 1044
GlyphClass: 2
Flags: W
LayerCount: 2
Fore
SplineSet
576 103 m 1,0,1
 576 360 576 360 576 617 c 1,2,-1
 778 617 l 1,3,4
 778 663 778 663 778 729 c 1,5,-1
 228 729 l 1,6,7
 228 663 228 663 228 617 c 1,8,-1
 430 617 l 1,9,10
 430 360 430 360 430 103 c 1,11,-1
 195 103 l 1,12,13
 195 54 195 54 195 -14 c 1,14,-1
 811 -14 l 1,15,16
 811 54 811 54 811 103 c 1,17,-1
 576 103 l 1,0,1
EndSplineSet
EndChar

StartChar: uni30A9
Encoding: 12457 12457 67
Width: 1044
GlyphClass: 2
Flags: W
LayerCount: 2
Fore
SplineSet
801 891 m 1,0,-1
 801 914 l 1,1,-1
 205 914 l 1,2,-1
 205 891 l 1,3,-1
 298 891 l 1,4,-1
 297 717 l 1,5,-1
 204 717 l 1,6,-1
 204 603 l 1,7,-1
 297 603 l 1,8,-1
 297 -26 l 1,9,-1
 432 -26 l 1,10,-1
 432 240 l 1,11,-1
 450 215 l 1,12,-1
 469 188 l 1,13,-1
 479 175 l 2,14,15
 516 127 516 127 547 101 c 0,16,17
 592 62 592 62 641 35 c 0,18,19
 722 -10 722 -10 801 -23 c 1,20,-1
 801 21 l 1,21,22
 760 32 760 32 716 64 c 0,23,24
 640 121 640 121 619 160 c 0,25,26
 570 254 570 254 544 295 c 0,27,28
 514 341 514 341 514 457 c 2,29,-1
 514 602 l 1,30,-1
 799 602 l 1,31,-1
 799 717 l 1,32,-1
 432 717 l 1,33,-1
 433 891 l 1,34,-1
 801 891 l 1,0,-1
EndSplineSet
EndChar

StartChar: uni30AA
Encoding: 12458 12458 68
Width: 1044
GlyphClass: 2
Flags: W
LayerCount: 2
Fore
SplineSet
801 891 m 1,0,-1
 801 914 l 1,1,-1
 205 914 l 1,2,-1
 205 891 l 1,3,-1
 298 891 l 1,4,-1
 297 717 l 1,5,-1
 204 717 l 1,6,-1
 204 603 l 1,7,-1
 297 603 l 1,8,-1
 297 -26 l 1,9,-1
 432 -26 l 1,10,-1
 432 240 l 1,11,-1
 450 215 l 1,12,-1
 469 188 l 1,13,-1
 479 175 l 2,14,15
 516 127 516 127 547 101 c 0,16,17
 592 62 592 62 641 35 c 0,18,19
 722 -10 722 -10 801 -23 c 1,20,-1
 801 21 l 1,21,22
 760 32 760 32 716 64 c 0,23,24
 640 121 640 121 619 160 c 0,25,26
 570 254 570 254 544 295 c 0,27,28
 514 341 514 341 514 457 c 2,29,-1
 514 602 l 1,30,-1
 799 602 l 1,31,-1
 799 717 l 1,32,-1
 432 717 l 1,33,-1
 433 891 l 1,34,-1
 801 891 l 1,0,-1
EndSplineSet
EndChar

StartChar: uni30AB
Encoding: 12459 12459 69
Width: 1064
GlyphClass: 2
Flags: W
LayerCount: 2
Fore
SplineSet
698 569 m 2,0,-1
 698 579 l 1,1,-1
 824 579 l 1,2,-1
 824 681 l 1,3,-1
 698 681 l 1,4,5
 698 738 698 738 698 814 c 1,6,-1
 549 814 l 1,7,8
 549 738 549 738 549 681 c 1,9,-1
 199 681 l 1,10,-1
 199 41 l 2,11,12
 199 8 199 8 225.5 -16 c 128,-1,13
 252 -40 252 -40 290 -40 c 2,14,-1
 469 -40 l 1,15,16
 469 21 469 21 469 61 c 1,17,18
 431 72 431 72 394 62 c 1,19,20
 393 69 393 69 393 62 c 1,21,22
 371 63 371 63 356 75 c 0,23,24
 340 87 340 87 340 104 c 2,25,-1
 340 579 l 1,26,-1
 550 579 l 1,27,-1
 550 569 l 2,28,29
 550 482 550 482 560.5 381.5 c 128,-1,30
 571 281 571 281 603 192 c 0,31,32
 634 106 634 106 693 42 c 0,33,34
 745 -17 745 -17 826 -38 c 1,35,36
 826 0 826 0 826 20 c 1,37,38
 781 49 781 49 755 103 c 0,39,40
 708 208 708 208 701 394 c 0,41,42
 698 480 698 480 698 569 c 2,0,-1
EndSplineSet
EndChar

StartChar: uni30AC
Encoding: 12460 12460 70
Width: 1064
GlyphClass: 2
Flags: W
LayerCount: 2
Fore
SplineSet
698 569 m 2,0,-1
 698 579 l 1,1,-1
 824 579 l 1,2,-1
 824 681 l 1,3,-1
 698 681 l 1,4,5
 698 738 698 738 698 814 c 1,6,-1
 549 814 l 1,7,8
 549 738 549 738 549 681 c 1,9,-1
 199 681 l 1,10,-1
 199 41 l 2,11,12
 199 8 199 8 225.5 -16 c 128,-1,13
 252 -40 252 -40 290 -40 c 2,14,-1
 469 -40 l 1,15,16
 469 21 469 21 469 61 c 1,17,18
 431 72 431 72 394 62 c 1,19,20
 393 69 393 69 393 62 c 1,21,22
 371 63 371 63 356 75 c 0,23,24
 340 87 340 87 340 104 c 2,25,-1
 340 579 l 1,26,-1
 550 579 l 1,27,-1
 550 569 l 2,28,29
 550 482 550 482 560.5 381.5 c 128,-1,30
 571 281 571 281 603 192 c 0,31,32
 634 106 634 106 693 42 c 0,33,34
 745 -17 745 -17 826 -38 c 1,35,36
 826 0 826 0 826 20 c 1,37,38
 781 49 781 49 755 103 c 0,39,40
 708 208 708 208 701 394 c 0,41,42
 698 480 698 480 698 569 c 2,0,-1
EndSplineSet
EndChar

StartChar: uni30AD
Encoding: 12461 12461 71
Width: 1044
GlyphClass: 2
Flags: W
LayerCount: 2
Fore
SplineSet
446 705 m 1,0,-1
 192 705 l 1,1,-1
 192 603 l 1,2,-1
 439 603 l 1,3,-1
 422 338 l 1,4,-1
 192 338 l 1,5,-1
 193 226 l 1,6,-1
 415 226 l 1,7,-1
 400 -15 l 1,8,-1
 546 -15 l 1,9,-1
 561 226 l 1,10,-1
 808 226 l 1,11,-1
 808 338 l 1,12,-1
 568 338 l 1,13,-1
 585 603 l 1,14,-1
 808 603 l 1,15,-1
 807 705 l 1,16,-1
 592 705 l 1,17,18
 596 761 596 761 600 838 c 1,19,-1
 454 838 l 1,20,21
 450 761 450 761 446 705 c 1,0,-1
EndSplineSet
EndChar

StartChar: uni30AE
Encoding: 12462 12462 72
Width: 1044
GlyphClass: 2
Flags: W
LayerCount: 2
Fore
SplineSet
446 705 m 1,0,-1
 192 705 l 1,1,-1
 192 603 l 1,2,-1
 439 603 l 1,3,-1
 422 338 l 1,4,-1
 192 338 l 1,5,-1
 193 226 l 1,6,-1
 415 226 l 1,7,-1
 400 -15 l 1,8,-1
 546 -15 l 1,9,-1
 561 226 l 1,10,-1
 808 226 l 1,11,-1
 808 338 l 1,12,-1
 568 338 l 1,13,-1
 585 603 l 1,14,-1
 808 603 l 1,15,-1
 807 705 l 1,16,-1
 592 705 l 1,17,18
 596 761 596 761 600 838 c 1,19,-1
 454 838 l 1,20,21
 450 761 450 761 446 705 c 1,0,-1
EndSplineSet
EndChar

StartChar: uni30AF
Encoding: 12463 12463 73
Width: 1064
GlyphClass: 2
Flags: W
LayerCount: 2
Fore
SplineSet
469 596 m 1,0,-1
 601 596 l 1,1,-1
 603 590 l 1,2,3
 632 523 632 523 687 462 c 0,4,5
 732 412 732 412 813 391 c 1,6,-1
 813 449 l 1,7,8
 764 482 764 482 744 519 c 0,9,10
 721 561 721 561 711 610 c 128,-1,11
 701 659 701 659 698.5 724 c 128,-1,12
 696 789 696 789 696 854 c 2,13,-1
 696 874 l 1,14,-1
 696 884 l 1,15,-1
 812 884 l 1,16,-1
 812 908 l 1,17,-1
 208 908 l 1,18,-1
 208 884 l 1,19,-1
 545 884 l 1,20,-1
 546 731 l 1,21,-1
 209 731 l 1,22,-1
 209 597 l 1,23,-1
 319 597 l 1,24,-1
 319 382 l 2,25,26
 319 242 319 242 368.5 160 c 128,-1,27
 418 78 418 78 491.5 36 c 128,-1,28
 565 -6 565 -6 647 -19 c 0,29,30
 722 -30 722 -30 781 -32 c 1,31,-1
 781 26 l 1,32,33
 735 29 735 29 683 42 c 0,34,35
 628 55 628 55 579 93 c 0,36,37
 528 134 528 134 499 200 c 0,38,39
 469 269 469 269 469 382 c 2,40,-1
 469 596 l 1,0,-1
EndSplineSet
EndChar

StartChar: uni30B3
Encoding: 12467 12467 74
Width: 1064
GlyphClass: 2
Flags: W
LayerCount: 2
Fore
SplineSet
341 688 m 1,0,-1
 758 688 l 1,1,2
 758 740 758 740 759 813 c 1,3,-1
 199 813 l 1,4,5
 199 386 199 386 199 -40 c 1,6,-1
 825 -40 l 1,7,8
 824 32 824 32 823 84 c 1,9,-1
 340 84 l 1,10,11
 340 386 340 386 341 688 c 1,0,-1
EndSplineSet
EndChar

StartChar: uni30B4
Encoding: 12468 12468 75
Width: 1064
GlyphClass: 2
Flags: W
LayerCount: 2
Fore
SplineSet
341 688 m 1,0,-1
 758 688 l 1,1,2
 758 740 758 740 759 813 c 1,3,-1
 199 813 l 1,4,5
 199 386 199 386 199 -40 c 1,6,-1
 825 -40 l 1,7,8
 824 32 824 32 823 84 c 1,9,-1
 340 84 l 1,10,11
 340 386 340 386 341 688 c 1,0,-1
EndSplineSet
EndChar

StartChar: uni30B5
Encoding: 12469 12469 76
Width: 1064
GlyphClass: 2
Flags: W
LayerCount: 2
Fore
SplineSet
741 546 m 1,0,-1
 814 546 l 1,1,-1
 814 660 l 1,2,-1
 741 660 l 1,3,-1
 741 836 l 1,4,-1
 614 836 l 1,5,-1
 614 660 l 1,6,-1
 410 660 l 1,7,-1
 410 836 l 1,8,-1
 283 836 l 1,9,-1
 283 660 l 1,10,-1
 210 660 l 1,11,-1
 210 546 l 1,12,-1
 283 546 l 1,13,-1
 283 389 l 2,14,15
 283 260 283 260 328 182 c 0,16,17
 376 104 376 104 446 61 c 128,-1,18
 516 18 516 18 593 2 c 0,19,20
 659 -11 659 -11 711 -16 c 1,21,-1
 711 29 l 1,22,23
 673 36 673 36 622.5 53 c 128,-1,24
 572 70 572 70 523 111.5 c 128,-1,25
 474 153 474 153 443 220 c 0,26,27
 410 288 410 288 410 389 c 2,28,-1
 410 546 l 1,29,-1
 614 546 l 1,30,-1
 614 351 l 1,31,-1
 741 351 l 1,32,-1
 741 546 l 1,0,-1
EndSplineSet
EndChar

StartChar: uni30B6
Encoding: 12470 12470 77
Width: 1064
GlyphClass: 2
Flags: W
LayerCount: 2
Fore
SplineSet
741 546 m 1,0,-1
 814 546 l 1,1,-1
 814 660 l 1,2,-1
 741 660 l 1,3,-1
 741 836 l 1,4,-1
 614 836 l 1,5,-1
 614 660 l 1,6,-1
 410 660 l 1,7,-1
 410 836 l 1,8,-1
 283 836 l 1,9,-1
 283 660 l 1,10,-1
 210 660 l 1,11,-1
 210 546 l 1,12,-1
 283 546 l 1,13,-1
 283 389 l 2,14,15
 283 260 283 260 328 182 c 0,16,17
 376 104 376 104 446 61 c 128,-1,18
 516 18 516 18 593 2 c 0,19,20
 659 -11 659 -11 711 -16 c 1,21,-1
 711 29 l 1,22,23
 673 36 673 36 622.5 53 c 128,-1,24
 572 70 572 70 523 111.5 c 128,-1,25
 474 153 474 153 443 220 c 0,26,27
 410 288 410 288 410 389 c 2,28,-1
 410 546 l 1,29,-1
 614 546 l 1,30,-1
 614 351 l 1,31,-1
 741 351 l 1,32,-1
 741 546 l 1,0,-1
EndSplineSet
EndChar

StartChar: uni30B7
Encoding: 12471 12471 78
Width: 1024
GlyphClass: 2
Flags: W
LayerCount: 2
Fore
SplineSet
502 590 m 1,0,-1
 503 474 l 1,1,-1
 825 474 l 1,2,-1
 824 590 l 1,3,-1
 502 590 l 1,0,-1
500 861 m 1,4,-1
 501 745 l 1,5,-1
 823 745 l 1,6,-1
 822 861 l 1,7,-1
 500 861 l 1,4,-1
817 -24 m 1,8,-1
 814 149 l 1,9,10
 621 151 621 151 509 227 c 0,11,12
 397 304 397 304 340 397 c 0,13,14
 284 489 284 489 270 567 c 2,15,-1
 259 635 l 1,16,-1
 210 635 l 1,17,-1
 214 535 l 2,18,19
 218 429 218 429 271 297 c 0,20,21
 313 192 313 192 455 70 c 0,22,23
 562 -22 562 -22 817 -24 c 1,8,-1
EndSplineSet
EndChar

StartChar: uni30B8
Encoding: 12472 12472 79
Width: 1024
GlyphClass: 2
Flags: W
LayerCount: 2
Fore
SplineSet
502 590 m 1,0,-1
 503 474 l 1,1,-1
 825 474 l 1,2,-1
 824 590 l 1,3,-1
 502 590 l 1,0,-1
500 861 m 1,4,-1
 501 745 l 1,5,-1
 823 745 l 1,6,-1
 822 861 l 1,7,-1
 500 861 l 1,4,-1
817 -24 m 1,8,-1
 814 149 l 1,9,10
 621 151 621 151 509 227 c 0,11,12
 397 304 397 304 340 397 c 0,13,14
 284 489 284 489 270 567 c 2,15,-1
 259 635 l 1,16,-1
 210 635 l 1,17,-1
 214 535 l 2,18,19
 218 429 218 429 271 297 c 0,20,21
 313 192 313 192 455 70 c 0,22,23
 562 -22 562 -22 817 -24 c 1,8,-1
EndSplineSet
EndChar

StartChar: uni30B9
Encoding: 12473 12473 80
Width: 1064
GlyphClass: 2
Flags: W
LayerCount: 2
Fore
SplineSet
484 732 m 5,0,-1
 484 732 l 5,1,-1
 823 732 l 5,2,3
 823 778 823 778 823 845 c 5,4,-1
 310 845 l 5,5,6
 310 780 310 780 313 710 c 4,7,8
 321 554 321 554 339 430 c 4,9,10
 348 373 348 373 359 338 c 5,11,-1
 320 280 l 6,12,13
 286 228 286 228 251 149 c 4,14,15
 216 67 216 67 207 19 c 4,16,17
 204 10 204 10 200 -8 c 5,18,19
 272 -3 272 -3 344 -7 c 5,20,21
 346 5 346 5 347 10 c 4,22,23
 352 47 352 47 373 94 c 4,24,25
 395 142 395 142 417 163 c 5,26,27
 428 180 428 180 438 182 c 5,28,29
 442 193 442 193 446 190 c 5,30,31
 450 193 450 193 453 181 c 5,32,33
 494 138 494 138 542 108 c 4,34,35
 631 50 631 50 742 18 c 4,36,37
 784 5 784 5 823 -5 c 5,38,39
 823 33 823 33 823 53 c 5,40,41
 723 105 723 105 658 159 c 5,42,43
 589 211 589 211 550 283 c 4,44,45
 512 359 512 359 498 466 c 132,-1,46
 484 573 484 573 484 732 c 5,0,-1
EndSplineSet
EndChar

StartChar: uni30BA
Encoding: 12474 12474 81
Width: 1064
GlyphClass: 2
Flags: W
LayerCount: 2
Fore
SplineSet
484 732 m 5,0,-1
 484 732 l 5,1,-1
 823 732 l 5,2,3
 823 778 823 778 823 845 c 5,4,-1
 310 845 l 5,5,6
 310 780 310 780 313 710 c 4,7,8
 321 554 321 554 339 430 c 4,9,10
 348 373 348 373 359 338 c 5,11,-1
 320 280 l 6,12,13
 286 228 286 228 251 149 c 4,14,15
 216 67 216 67 207 19 c 4,16,17
 204 10 204 10 200 -8 c 5,18,19
 272 -3 272 -3 344 -7 c 5,20,21
 346 5 346 5 347 10 c 4,22,23
 352 47 352 47 373 94 c 4,24,25
 395 142 395 142 417 163 c 5,26,27
 428 180 428 180 438 182 c 5,28,29
 442 193 442 193 446 190 c 5,30,31
 450 193 450 193 453 181 c 5,32,33
 494 138 494 138 542 108 c 4,34,35
 631 50 631 50 742 18 c 4,36,37
 784 5 784 5 823 -5 c 5,38,39
 823 33 823 33 823 53 c 5,40,41
 723 105 723 105 658 159 c 5,42,43
 589 211 589 211 550 283 c 4,44,45
 512 359 512 359 498 466 c 132,-1,46
 484 573 484 573 484 732 c 5,0,-1
EndSplineSet
EndChar

StartChar: uni30BB
Encoding: 12475 12475 82
Width: 984
GlyphClass: 2
Flags: W
LayerCount: 2
Fore
SplineSet
753 271 m 2,0,-1
 753 588 l 1,1,-1
 763 588 l 1,2,-1
 787 588 l 1,3,-1
 787 730 l 1,4,-1
 763 730 l 1,5,-1
 753 730 l 1,6,-1
 753 907 l 1,7,-1
 227 907 l 1,8,-1
 227 883 l 1,9,-1
 604 883 l 1,10,-1
 604 730 l 1,11,-1
 197 730 l 1,12,-1
 197 537 l 2,13,14
 197 461 197 461 217 409 c 0,15,16
 259 299 259 299 353 252 c 0,17,18
 393 232 393 232 437 225 c 1,19,-1
 437 284 l 1,20,21
 362 323 362 323 352.5 395.5 c 128,-1,22
 343 468 343 468 343 586 c 2,23,-1
 343 596 l 1,24,-1
 604 596 l 1,25,-1
 604 289 l 2,26,27
 604 172 604 172 567.5 127 c 128,-1,28
 531 82 531 82 435 82 c 2,29,-1
 244 82 l 1,30,-1
 244 -33 l 1,31,-1
 450 -33 l 2,32,33
 537 -33 537 -33 594 -13 c 256,34,35
 651 7 651 7 686 44 c 0,36,37
 722 82 722 82 737.5 139 c 128,-1,38
 753 196 753 196 753 271 c 2,0,-1
EndSplineSet
EndChar

StartChar: uni30BC
Encoding: 12476 12476 83
Width: 984
GlyphClass: 2
Flags: W
LayerCount: 2
Fore
SplineSet
753 271 m 2,0,-1
 753 588 l 1,1,-1
 763 588 l 1,2,-1
 787 588 l 1,3,-1
 787 730 l 1,4,-1
 763 730 l 1,5,-1
 753 730 l 1,6,-1
 753 907 l 1,7,-1
 227 907 l 1,8,-1
 227 883 l 1,9,-1
 604 883 l 1,10,-1
 604 730 l 1,11,-1
 197 730 l 1,12,-1
 197 537 l 2,13,14
 197 461 197 461 217 409 c 0,15,16
 259 299 259 299 353 252 c 0,17,18
 393 232 393 232 437 225 c 1,19,-1
 437 284 l 1,20,21
 362 323 362 323 352.5 395.5 c 128,-1,22
 343 468 343 468 343 586 c 2,23,-1
 343 596 l 1,24,-1
 604 596 l 1,25,-1
 604 289 l 2,26,27
 604 172 604 172 567.5 127 c 128,-1,28
 531 82 531 82 435 82 c 2,29,-1
 244 82 l 1,30,-1
 244 -33 l 1,31,-1
 450 -33 l 2,32,33
 537 -33 537 -33 594 -13 c 256,34,35
 651 7 651 7 686 44 c 0,36,37
 722 82 722 82 737.5 139 c 128,-1,38
 753 196 753 196 753 271 c 2,0,-1
EndSplineSet
EndChar

StartChar: uni30BD
Encoding: 12477 12477 84
Width: 1024
GlyphClass: 2
Flags: W
LayerCount: 2
Fore
SplineSet
406 331.5 m 128,-1,1
 363 425 363 425 363 549 c 2,2,-1
 363 823 l 1,3,-1
 200 823 l 1,4,-1
 200 549 l 2,5,6
 200 375 200 375 262 262 c 128,-1,7
 324 149 324 149 413 81 c 128,-1,8
 502 13 502 13 598.5 -16 c 128,-1,9
 695 -45 695 -45 765 -50 c 0,10,11
 768 -47 768 -47 771 -46 c 2,12,-1
 771 23 l 1,13,14
 715 34 715 34 644 71 c 0,15,16
 574 109 574 109 511.5 173.5 c 128,-1,0
 449 238 449 238 406 331.5 c 128,-1,1
824 833 m 1,17,-1
 774 412 l 1,18,-1
 613 412 l 1,19,-1
 663 833 l 1,20,-1
 824 833 l 1,17,-1
EndSplineSet
EndChar

StartChar: uni30BE
Encoding: 12478 12478 85
Width: 1024
GlyphClass: 2
Flags: W
LayerCount: 2
Fore
SplineSet
406 331.5 m 128,-1,1
 363 425 363 425 363 549 c 2,2,-1
 363 823 l 1,3,-1
 200 823 l 1,4,-1
 200 549 l 2,5,6
 200 375 200 375 262 262 c 128,-1,7
 324 149 324 149 413 81 c 128,-1,8
 502 13 502 13 598.5 -16 c 128,-1,9
 695 -45 695 -45 765 -50 c 0,10,11
 768 -47 768 -47 771 -46 c 2,12,-1
 771 23 l 1,13,14
 715 34 715 34 644 71 c 0,15,16
 574 109 574 109 511.5 173.5 c 128,-1,0
 449 238 449 238 406 331.5 c 128,-1,1
824 833 m 1,17,-1
 774 412 l 1,18,-1
 613 412 l 1,19,-1
 663 833 l 1,20,-1
 824 833 l 1,17,-1
EndSplineSet
EndChar

StartChar: uni30C3
Encoding: 12483 12483 86
Width: 1064
GlyphClass: 2
Flags: W
LayerCount: 2
Fore
SplineSet
369 601 m 2,0,-1
 369 874 l 1,1,-1
 220 875 l 1,2,-1
 220 602 l 2,3,4
 220 429 220 429 282 316 c 128,-1,5
 344 203 344 203 450 136 c 128,-1,6
 556 69 556 69 660 39 c 0,7,8
 777 6 777 6 827 6 c 0,9,10
 833 6 833 6 833 10 c 2,11,-1
 833 79 l 1,12,13
 660 114 660 114 522 242 c 0,14,15
 425 333 425 333 402 396 c 0,16,17
 369 486 369 486 369 601 c 2,0,-1
819 506 m 1,18,-1
 721 506 l 1,19,-1
 780 884 l 1,20,-1
 877 884 l 1,21,-1
 819 506 l 1,18,-1
510 506 m 1,22,-1
 569 884 l 1,23,-1
 666 884 l 1,24,-1
 606 506 l 1,25,-1
 510 506 l 1,22,-1
EndSplineSet
EndChar

StartChar: uni30C4
Encoding: 12484 12484 87
Width: 1064
GlyphClass: 2
Flags: W
LayerCount: 2
Fore
SplineSet
369 601 m 2,0,-1
 369 874 l 1,1,-1
 220 875 l 1,2,-1
 220 602 l 2,3,4
 220 429 220 429 282 316 c 128,-1,5
 344 203 344 203 450 136 c 128,-1,6
 556 69 556 69 660 39 c 0,7,8
 777 6 777 6 827 6 c 0,9,10
 833 6 833 6 833 10 c 2,11,-1
 833 79 l 1,12,13
 660 114 660 114 522 242 c 0,14,15
 425 333 425 333 402 396 c 0,16,17
 369 486 369 486 369 601 c 2,0,-1
819 506 m 1,18,-1
 721 506 l 1,19,-1
 780 884 l 1,20,-1
 877 884 l 1,21,-1
 819 506 l 1,18,-1
510 506 m 1,22,-1
 569 884 l 1,23,-1
 666 884 l 1,24,-1
 606 506 l 1,25,-1
 510 506 l 1,22,-1
EndSplineSet
EndChar

StartChar: uni30C5
Encoding: 12485 12485 88
Width: 1064
GlyphClass: 2
Flags: W
LayerCount: 2
Fore
SplineSet
369 601 m 2,0,-1
 369 874 l 1,1,-1
 220 875 l 1,2,-1
 220 602 l 2,3,4
 220 429 220 429 282 316 c 128,-1,5
 344 203 344 203 450 136 c 128,-1,6
 556 69 556 69 660 39 c 0,7,8
 777 6 777 6 827 6 c 0,9,10
 833 6 833 6 833 10 c 2,11,-1
 833 79 l 1,12,13
 660 114 660 114 522 242 c 0,14,15
 425 333 425 333 402 396 c 0,16,17
 369 486 369 486 369 601 c 2,0,-1
819 506 m 1,18,-1
 721 506 l 1,19,-1
 780 884 l 1,20,-1
 877 884 l 1,21,-1
 819 506 l 1,18,-1
510 506 m 1,22,-1
 569 884 l 1,23,-1
 666 884 l 1,24,-1
 606 506 l 1,25,-1
 510 506 l 1,22,-1
EndSplineSet
EndChar

StartChar: uni30C6
Encoding: 12486 12486 89
Width: 1024
GlyphClass: 2
Flags: W
LayerCount: 2
Fore
SplineSet
198 442 m 1,0,-1
 343 442 l 1,1,2
 358 327 358 327 388 245 c 256,3,4
 418 163 418 163 471 107 c 128,-1,5
 524 51 524 51 603 19 c 0,6,7
 683 -14 683 -14 797 -29 c 1,8,-1
 811 30 l 1,9,10
 712 53 712 53 654 95 c 0,11,12
 597 136 597 136 568 190 c 128,-1,13
 539 244 539 244 532 309 c 0,14,15
 524 373 524 373 524 442 c 1,16,-1
 823 442 l 1,17,-1
 823 576 l 1,18,-1
 198 576 l 1,19,-1
 198 442 l 1,0,-1
198 863 m 1,20,-1
 823 863 l 1,21,-1
 823 731 l 1,22,-1
 198 731 l 1,23,-1
 198 863 l 1,20,-1
EndSplineSet
EndChar

StartChar: uni30C7
Encoding: 12487 12487 90
Width: 1024
GlyphClass: 2
Flags: W
LayerCount: 2
Fore
SplineSet
198 442 m 1,0,-1
 343 442 l 1,1,2
 358 327 358 327 388 245 c 256,3,4
 418 163 418 163 471 107 c 128,-1,5
 524 51 524 51 603 19 c 0,6,7
 683 -14 683 -14 797 -29 c 1,8,-1
 811 30 l 1,9,10
 712 53 712 53 654 95 c 0,11,12
 597 136 597 136 568 190 c 128,-1,13
 539 244 539 244 532 309 c 0,14,15
 524 373 524 373 524 442 c 1,16,-1
 823 442 l 1,17,-1
 823 576 l 1,18,-1
 198 576 l 1,19,-1
 198 442 l 1,0,-1
198 863 m 1,20,-1
 823 863 l 1,21,-1
 823 731 l 1,22,-1
 198 731 l 1,23,-1
 198 863 l 1,20,-1
EndSplineSet
EndChar

StartChar: uni30CA
Encoding: 12490 12490 91
Width: 1064
GlyphClass: 2
Flags: W
LayerCount: 2
Fore
SplineSet
400 927 m 1,0,-1
 400 728 l 1,1,-1
 214 728 l 1,2,-1
 214 616 l 1,3,-1
 400 616 l 1,4,-1
 400 426 l 2,5,6
 400 303 400 303 439 225.5 c 128,-1,7
 478 148 478 148 537.5 103.5 c 128,-1,8
 597 59 597 59 668 40 c 0,9,10
 732 23 732 23 789 16 c 1,11,-1
 789 80 l 1,12,13
 753 87 753 87 710 106 c 0,14,15
 665 126 665 126 629 166 c 0,16,17
 597 202 597 202 572 269 c 0,18,19
 550 324 550 324 550 426 c 2,20,-1
 550 616 l 1,21,-1
 814 616 l 1,22,-1
 814 728 l 1,23,-1
 550 728 l 1,24,-1
 550 927 l 1,25,-1
 400 927 l 1,0,-1
EndSplineSet
EndChar

StartChar: uni30CB
Encoding: 12491 12491 92
Width: 1064
GlyphClass: 2
Flags: W
LayerCount: 2
Fore
SplineSet
865 20 m 1,0,-1
 199 20 l 1,1,2
 200 93 200 93 200 166 c 1,3,-1
 866 166 l 1,4,5
 866 93 866 93 865 20 c 1,0,-1
252 782 m 1,6,-1
 252 651 l 1,7,-1
 812 651 l 1,8,-1
 812 782 l 1,9,-1
 252 782 l 1,6,-1
EndSplineSet
EndChar

StartChar: uni30CC
Encoding: 12492 12492 93
Width: 1064
GlyphClass: 2
Flags: W
LayerCount: 2
Fore
SplineSet
359.5 539 m 128,-1,1
 356 572 356 572 356 607 c 2,2,-1
 356 764 l 1,3,-1
 612 764 l 1,4,-1
 614 757 l 1,5,-1
 623 729 l 2,6,7
 631 700 631 700 651.5 658 c 128,-1,8
 672 616 672 616 705 568 c 0,9,10
 738 521 738 521 784 481 c 1,11,-1
 810 519 l 1,12,-1
 708 877 l 1,13,-1
 213 877 l 1,14,-1
 213 608 l 2,15,16
 213 433 213 433 274 319 c 0,17,18
 336 205 336 205 428 136 c 0,19,20
 521 68 521 68 620 40 c 0,21,22
 717 11 717 11 784 6 c 1,23,-1
 784 62 l 1,24,25
 675 85 675 85 580 148 c 0,26,27
 531 181 531 181 492 223 c 0,28,29
 452 266 452 266 423 320 c 2,30,-1
 418 329 l 1,31,-1
 617 436 l 1,32,-1
 617 517 l 1,33,-1
 371 465 l 1,34,0
 363 506 363 506 359.5 539 c 128,-1,1
EndSplineSet
EndChar

StartChar: uni30CD
Encoding: 12493 12493 94
Width: 1064
GlyphClass: 2
Flags: W
LayerCount: 2
Fore
SplineSet
390 728 m 5,0,-1
 824 728 l 5,1,-1
 824 840 l 5,2,-1
 587 840 l 5,3,-1
 587 929 l 5,4,-1
 438 929 l 5,5,-1
 438 840 l 5,6,-1
 199 840 l 5,7,8
 201 728 201 728 234 636 c 4,9,10
 266 547 266 547 326 477 c 5,11,-1
 333 470 l 5,12,-1
 199 365 l 5,13,-1
 199 214 l 5,14,-1
 437 395 l 5,15,-1
 437 0 l 5,16,-1
 199 0 l 5,17,-1
 199 -32 l 5,18,-1
 824 -32 l 5,19,-1
 824 0 l 5,20,-1
 586 0 l 5,21,-1
 586 304 l 5,22,-1
 600 298 l 5,23,24
 668 274 668 274 726 262 c 4,25,26
 782 251 782 251 824 249 c 5,27,-1
 823 321 l 5,28,29
 793.885742188 327.750976562 793.885742188 327.750976562 684 368 c 4,30,31
 512 430 512 430 452 558 c 4,32,33
 412.208984375 639.1640625 412.208984375 639.1640625 393 716 c 6,34,-1
 390 728 l 5,0,-1
EndSplineSet
EndChar

StartChar: uni30CF
Encoding: 12495 12495 95
Width: 1064
GlyphClass: 2
Flags: W
LayerCount: 2
Fore
SplineSet
293 0 m 1,0,-1
 171 0 l 1,1,2
 256 446 256 446 340 891 c 1,3,-1
 466 891 l 1,4,5
 380 446 380 446 293 0 c 1,0,-1
694 890 m 1,6,-1
 579 888 l 1,7,8
 583 403 583 403 806 42 c 1,9,-1
 882 70 l 1,10,11
 696 446 696 446 694 890 c 1,6,-1
EndSplineSet
EndChar

StartChar: uni30D2
Encoding: 12498 12498 96
Width: 1064
GlyphClass: 2
Flags: W
LayerCount: 2
Fore
SplineSet
144 3 m 5,0,-1
 175 3 l 6,1,2
 271 3 271 3 362 2 c 6,3,-1
 471 2 l 6,4,5
 586 2 586 2 664 26 c 4,6,7
 734 48 734 48 774 94 c 4,8,9
 814 139 814 139 832.5 208.5 c 4,10,11
 857 297 857 297 857 372 c 4,12,13
 857 668 857 668 857 944 c 5,14,-1
 704 945 l 5,15,16
 704 835 704 835 704 705 c 5,17,18
 424 705 424 705 144 706 c 5,19,20
 144 635 144 635 144 565 c 5,21,22
 446 573 446 573 704 564 c 5,23,24
 704 478 704 478 704 392 c 4,25,26
 704 238 704 238 657 199 c 4,27,28
 592 144 592 144 451 144 c 6,29,-1
 367 144 l 6,30,31
 353 144 353 144 179 145 c 6,32,-1
 144 145 l 5,33,34
 144 84 144 84 144 3 c 5,0,-1
EndSplineSet
EndChar

StartChar: uni30D5
Encoding: 12501 12501 97
Width: 1064
GlyphClass: 2
Flags: W
LayerCount: 2
Fore
SplineSet
330 641 m 2,0,-1
 331 724 l 1,1,-1
 817 724 l 1,2,-1
 816 828 l 1,3,-1
 208 828 l 1,4,-1
 208 641 l 2,5,6
 208 565 208 565 219 477 c 0,7,8
 228 401 228 401 263 328 c 0,9,10
 296 258 296 258 361 200 c 5,11,12
 501 105 501 105 530 101 c 5,13,14
 530 101 530 101 554 100 c 1,15,-1
 556 96 l 1,16,17
 537 51 537 51 520 -5 c 1,18,-1
 646 -5 l 1,19,-1
 762 385 l 1,20,-1
 638 385 l 1,21,-1
 583 198 l 1,22,-1
 572 203 l 1,23,-1
 561 209 l 1,24,25
 437 272 437 272 381 383 c 0,26,27
 328 488 328 488 330 641 c 2,0,-1
EndSplineSet
EndChar

StartChar: uni30D6
Encoding: 12502 12502 98
Width: 1064
GlyphClass: 2
Flags: W
LayerCount: 2
Fore
SplineSet
330 641 m 2,0,-1
 331 724 l 1,1,-1
 817 724 l 1,2,-1
 816 828 l 1,3,-1
 208 828 l 1,4,-1
 208 641 l 2,5,6
 208 565 208 565 219 477 c 0,7,8
 228 401 228 401 263 328 c 0,9,10
 296 258 296 258 361 200 c 5,11,12
 501 105 501 105 530 101 c 5,13,14
 530 101 530 101 554 100 c 1,15,-1
 556 96 l 1,16,17
 537 51 537 51 520 -5 c 1,18,-1
 646 -5 l 1,19,-1
 762 385 l 1,20,-1
 638 385 l 1,21,-1
 583 198 l 1,22,-1
 572 203 l 1,23,-1
 561 209 l 1,24,25
 437 272 437 272 381 383 c 0,26,27
 328 488 328 488 330 641 c 2,0,-1
EndSplineSet
EndChar

StartChar: uni30D7
Encoding: 12503 12503 99
Width: 1064
GlyphClass: 2
Flags: W
LayerCount: 2
Fore
SplineSet
330 641 m 2,0,-1
 331 724 l 1,1,-1
 817 724 l 1,2,-1
 816 828 l 1,3,-1
 208 828 l 1,4,-1
 208 641 l 2,5,6
 208 565 208 565 219 477 c 0,7,8
 228 401 228 401 263 328 c 0,9,10
 296 258 296 258 361 200 c 5,11,12
 501 105 501 105 530 101 c 5,13,14
 530 101 530 101 554 100 c 1,15,-1
 556 96 l 1,16,17
 537 51 537 51 520 -5 c 1,18,-1
 646 -5 l 1,19,-1
 762 385 l 1,20,-1
 638 385 l 1,21,-1
 583 198 l 1,22,-1
 572 203 l 1,23,-1
 561 209 l 1,24,25
 437 272 437 272 381 383 c 0,26,27
 328 488 328 488 330 641 c 2,0,-1
EndSplineSet
EndChar

StartChar: uni30DB
Encoding: 12507 12507 100
Width: 1064
GlyphClass: 2
Flags: W
LayerCount: 2
Fore
SplineSet
840 14 m 1,0,-1
 840 14 l 1,1,2
 715 24 715 24 591 15 c 1,3,-1
 605 686 l 1,4,-1
 829 685 l 1,5,-1
 829 787 l 1,6,-1
 611 788 l 1,7,8
 611 856 611 856 611 924 c 1,9,-1
 487 923 l 1,10,11
 487 855 487 855 487 787 c 1,12,-1
 260 787 l 1,13,-1
 260 685 l 1,14,-1
 481 685 l 1,15,-1
 467 14 l 1,16,-1
 300 14 l 1,17,-1
 300 14 l 1,18,19
 300 94 300 94 325 161 c 0,20,21
 346 217 346 217 373 359 c 0,22,23
 387.464285714 434.214285714 387.464285714 434.214285714 390 490 c 2,24,-1
 392 534 l 1,25,-1
 281 534 l 1,26,-1
 279 489 l 2,27,28
 276 429 276 429 263 355 c 0,29,30
 242 233 242 233 216 152 c 0,31,32
 193 81 193 81 193 14 c 2,33,-1
 193 -20 l 1,34,-1
 843 -20 l 1,35,-1
 843 14 l 2,36,37
 843 81 843 81 838 150 c 0,38,39
 833 216 833 216 809 355 c 0,40,41
 795.366589327 435.751740139 795.366589327 435.751740139 793 489 c 2,42,-1
 791 534 l 1,43,-1
 682 534 l 1,44,-1
 684 491 l 2,45,46
 686 439 686 439 701 359 c 0,47,48
 712 297 712 297 735 249 c 0,49,50
 745 229 745 229 781 166 c 0,51,52
 809 117 809 117 822 91 c 0,53,54
 840 53 840 53 840 14 c 1,0,-1
EndSplineSet
EndChar

StartChar: uni30DC
Encoding: 12508 12508 101
Width: 1064
GlyphClass: 2
Flags: W
LayerCount: 2
Fore
SplineSet
840 14 m 1,0,-1
 840 14 l 1,1,2
 715 24 715 24 591 15 c 1,3,-1
 605 686 l 1,4,-1
 829 685 l 1,5,-1
 829 787 l 1,6,-1
 611 788 l 1,7,8
 611 856 611 856 611 924 c 1,9,-1
 487 923 l 1,10,11
 487 855 487 855 487 787 c 1,12,-1
 260 787 l 1,13,-1
 260 685 l 1,14,-1
 481 685 l 1,15,-1
 467 14 l 1,16,-1
 300 14 l 1,17,-1
 300 14 l 1,18,19
 300 94 300 94 325 161 c 0,20,21
 346 217 346 217 373 359 c 0,22,23
 387.464285714 434.214285714 387.464285714 434.214285714 390 490 c 2,24,-1
 392 534 l 1,25,-1
 281 534 l 1,26,-1
 279 489 l 2,27,28
 276 429 276 429 263 355 c 0,29,30
 242 233 242 233 216 152 c 0,31,32
 193 81 193 81 193 14 c 2,33,-1
 193 -20 l 1,34,-1
 843 -20 l 1,35,-1
 843 14 l 2,36,37
 843 81 843 81 838 150 c 0,38,39
 833 216 833 216 809 355 c 0,40,41
 795.366589327 435.751740139 795.366589327 435.751740139 793 489 c 2,42,-1
 791 534 l 1,43,-1
 682 534 l 1,44,-1
 684 491 l 2,45,46
 686 439 686 439 701 359 c 0,47,48
 712 297 712 297 735 249 c 0,49,50
 745 229 745 229 781 166 c 0,51,52
 809 117 809 117 822 91 c 0,53,54
 840 53 840 53 840 14 c 1,0,-1
EndSplineSet
EndChar

StartChar: uni30DD
Encoding: 12509 12509 102
Width: 1064
GlyphClass: 2
Flags: W
LayerCount: 2
Fore
SplineSet
840 14 m 1,0,-1
 840 14 l 1,1,2
 715 24 715 24 591 15 c 1,3,-1
 605 686 l 1,4,-1
 829 685 l 1,5,-1
 829 787 l 1,6,-1
 611 788 l 1,7,8
 611 856 611 856 611 924 c 1,9,-1
 487 923 l 1,10,11
 487 855 487 855 487 787 c 1,12,-1
 260 787 l 1,13,-1
 260 685 l 1,14,-1
 481 685 l 1,15,-1
 467 14 l 1,16,-1
 300 14 l 1,17,-1
 300 14 l 1,18,19
 300 94 300 94 325 161 c 0,20,21
 346 217 346 217 373 359 c 0,22,23
 387.464285714 434.214285714 387.464285714 434.214285714 390 490 c 2,24,-1
 392 534 l 1,25,-1
 281 534 l 1,26,-1
 279 489 l 2,27,28
 276 429 276 429 263 355 c 0,29,30
 242 233 242 233 216 152 c 0,31,32
 193 81 193 81 193 14 c 2,33,-1
 193 -20 l 1,34,-1
 843 -20 l 1,35,-1
 843 14 l 2,36,37
 843 81 843 81 838 150 c 0,38,39
 833 216 833 216 809 355 c 0,40,41
 795.366589327 435.751740139 795.366589327 435.751740139 793 489 c 2,42,-1
 791 534 l 1,43,-1
 682 534 l 1,44,-1
 684 491 l 2,45,46
 686 439 686 439 701 359 c 0,47,48
 712 297 712 297 735 249 c 0,49,50
 745 229 745 229 781 166 c 0,51,52
 809 117 809 117 822 91 c 0,53,54
 840 53 840 53 840 14 c 1,0,-1
EndSplineSet
EndChar

StartChar: uni30DE
Encoding: 12510 12510 103
Width: 1064
GlyphClass: 2
Flags: W
LayerCount: 2
Fore
SplineSet
353 300 m 0,0,1
 467.126948775 243.937639198 467.126948775 243.937639198 580 252 c 2,2,-1
 594 253 l 1,3,-1
 604 253 l 1,4,-1
 605 244 l 2,5,6
 619 119 619 119 781 58 c 1,7,-1
 790 163 l 1,8,9
 709.366801383 199.832448751 709.366801383 199.832448751 709 293 c 2,10,-1
 708 547 l 1,11,-1
 578 547 l 1,12,-1
 578 362 l 1,13,14
 565 362 565 362 562 362 c 0,15,16
 489 362 489 362 454 380 c 0,17,18
 387 415 387 415 388 478 c 0,19,20
 388 703 388 703 388 710 c 2,21,-1
 388 720 l 1,22,-1
 778 720 l 1,23,-1
 777 836 l 1,24,-1
 258 836 l 1,25,-1
 260 465 l 2,26,27
 261 345 261 345 353 300 c 0,0,1
EndSplineSet
EndChar

StartChar: uni30DF
Encoding: 12511 12511 104
Width: 984
GlyphClass: 2
Flags: W
LayerCount: 2
Fore
SplineSet
195 27 m 1,0,-1
 781 91 l 1,1,-1
 783 211 l 1,2,-1
 197 148 l 1,3,-1
 195 27 l 1,0,-1
185 15 m 1024,4,-1
197 664 m 1,5,-1
 783 728 l 1,6,-1
 785 853 l 1,7,-1
 199 790 l 1,8,-1
 197 664 l 1,5,-1
269 354 m 1,9,-1
 729 410 l 1,10,-1
 733 521 l 1,11,-1
 273 472 l 1,12,-1
 269 354 l 1,9,-1
EndSplineSet
EndChar

StartChar: uni30E0
Encoding: 12512 12512 105
Width: 1064
GlyphClass: 2
Flags: W
LayerCount: 2
Fore
SplineSet
810 -12 m 1,0,1
 828 48 828 48 846 95 c 1,2,3
 766 442 766 442 684 795 c 1,4,-1
 528 795 l 1,5,6
 608 467 608 467 687 140 c 1,7,8
 527 163 527 163 367 167 c 1,9,10
 423 336 423 336 479 496 c 1,11,-1
 353 534 l 1,12,-1
 176 -13 l 1,13,-1
 308 -13 l 1,14,15
 314 7 314 7 320 16 c 1,16,17
 321 35 321 35 322 31 c 0,18,19
 568 19 568 19 810 -12 c 1,0,1
EndSplineSet
EndChar

StartChar: uni30E1
Encoding: 12513 12513 106
Width: 1064
GlyphClass: 2
Flags: W
LayerCount: 2
Fore
SplineSet
199 382 m 1,0,-1
 199 250 l 1,1,-1
 345 323 l 1,2,-1
 350 313 l 2,3,4
 386 240 386 240 439 181 c 0,5,6
 492 124 492 124 555.5 82.5 c 128,-1,7
 619 41 619 41 689 20 c 0,8,9
 756 -1 756 -1 824 -1 c 1,10,-1
 824 57 l 1,11,12
 763 65 763 65 714 92 c 0,13,14
 607 146 607 146 542 263 c 0,15,16
 511 319 511 319 489 390 c 1,17,-1
 719 499 l 1,18,-1
 719 632 l 1,19,-1
 462 510 l 1,20,-1
 461 525 l 1,21,-1
 459 564 l 1,22,-1
 446 732 l 1,23,-1
 444 762 l 1,24,-1
 272 762 l 1,25,-1
 274 744 l 1,26,-1
 279 674 l 1,27,-1
 293 518 l 2,28,29
 296 475 296 475 306 436 c 1,30,-1
 199 382 l 1,0,-1
EndSplineSet
EndChar

StartChar: uni30E2
Encoding: 12514 12514 107
Width: 984
GlyphClass: 2
Flags: W
LayerCount: 2
Fore
SplineSet
784 778 m 1,0,-1
 784 890 l 1,1,-1
 198 890 l 1,2,-1
 198 778 l 1,3,-1
 542 778 l 1,4,-1
 542 603 l 1,5,-1
 198 603 l 1,6,-1
 198 491 l 1,7,-1
 542 491 l 1,8,-1
 542 168 l 2,9,10
 542 136 542 136 530 122 c 128,-1,11
 518 108 518 108 484 108 c 2,12,-1
 198 108 l 1,13,-1
 198 -27 l 1,14,-1
 542 -27 l 2,15,16
 627 -27 627 -27 651 1 c 0,17,18
 675 30 675 30 675 114 c 2,19,-1
 675 491 l 1,20,-1
 783 491 l 1,21,-1
 783 603 l 1,22,-1
 676 603 l 1,23,-1
 676 778 l 1,24,-1
 784 778 l 1,0,-1
EndSplineSet
EndChar

StartChar: uni30E3
Encoding: 12515 12515 108
Width: 1064
GlyphClass: 2
Flags: W
LayerCount: 2
Fore
SplineSet
783 706 m 1,0,-1
 823 706 l 1,1,2
 823 763 823 763 823 840 c 1,3,-1
 792 840 l 1,4,-1
 781 840 l 1,5,6
 783 864 783 864 785 907 c 1,7,-1
 640 907 l 1,8,9
 638 864 638 864 636 840 c 1,10,-1
 198 840 l 1,11,-1
 198 658 l 2,12,13
 198 586 198 586 217 530 c 0,14,15
 257 417 257 417 349 373 c 0,16,17
 393 352 393 352 440 345 c 1,18,-1
 440 392 l 1,19,20
 357 432 357 432 338.5 510 c 128,-1,21
 320 588 320 588 320 706 c 1,22,-1
 320 706 l 1,23,-1
 628 706 l 1,24,25
 606 374 606 374 584 42 c 1,26,-1
 271 42 l 1,27,28
 271 36 271 36 271 10 c 1,29,-1
 823 10 l 1,30,31
 823 36 823 36 823 42 c 1,32,33
 778 52 778 52 732 42 c 1,34,35
 753 374 753 374 774 706 c 1,36,-1
 783 706 l 1,0,-1
EndSplineSet
EndChar

StartChar: uni30E4
Encoding: 12516 12516 109
Width: 1064
GlyphClass: 2
Flags: W
LayerCount: 2
Fore
SplineSet
783 706 m 1,0,-1
 823 706 l 1,1,2
 823 763 823 763 823 840 c 1,3,-1
 792 840 l 1,4,-1
 781 840 l 1,5,6
 783 864 783 864 785 907 c 1,7,-1
 640 907 l 1,8,9
 638 864 638 864 636 840 c 1,10,-1
 198 840 l 1,11,-1
 198 658 l 2,12,13
 198 586 198 586 217 530 c 0,14,15
 257 417 257 417 349 373 c 0,16,17
 393 352 393 352 440 345 c 1,18,-1
 440 392 l 1,19,20
 357 432 357 432 338.5 510 c 128,-1,21
 320 588 320 588 320 706 c 1,22,-1
 320 706 l 1,23,-1
 628 706 l 1,24,25
 606 374 606 374 584 42 c 1,26,-1
 271 42 l 1,27,28
 271 36 271 36 271 10 c 1,29,-1
 823 10 l 1,30,31
 823 36 823 36 823 42 c 1,32,33
 778 52 778 52 732 42 c 1,34,35
 753 374 753 374 774 706 c 1,36,-1
 783 706 l 1,0,-1
EndSplineSet
EndChar

StartChar: uni30E9
Encoding: 12521 12521 110
Width: 1024
GlyphClass: 2
Flags: W
LayerCount: 2
Fore
SplineSet
349 393 m 2,0,-1
 349 475 l 1,1,-1
 812 475 l 1,2,-1
 812 587 l 1,3,-1
 207 587 l 1,4,-1
 207 393 l 2,5,6
 207 225 207 225 275 138 c 0,7,8
 342 52 342 52 432 17 c 0,9,10
 521 -18 521 -18 605.5 -19 c 128,-1,11
 690 -20 690 -20 732 -20 c 1,12,-1
 732 45 l 1,13,14
 688 45 688 45 629 48 c 0,15,16
 549 51 549 51 497 77 c 0,17,18
 437 105 437 105 393 179 c 256,19,20
 349 253 349 253 349 393 c 2,0,-1
789 846 m 1,21,-1
 228 845 l 1,22,-1
 218 719 l 1,23,-1
 794 720 l 1,24,-1
 789 846 l 1,21,-1
EndSplineSet
EndChar

StartChar: uni30EA
Encoding: 12522 12522 111
Width: 1024
GlyphClass: 2
Flags: W
LayerCount: 2
Fore
SplineSet
731 -8 m 1,0,1
 688 -8 688 -8 597 -7 c 0,2,3
 507 -6 507 -6 415.5 30 c 128,-1,4
 324 66 324 66 255 154 c 256,5,6
 186 242 186 242 186 415 c 0,7,8
 186 532 186 532 186 620 c 256,9,10
 186 708 186 708 186 766.5 c 128,-1,11
 186 825 186 825 186 855 c 0,12,13
 186 884 186 884 186 884 c 1,14,-1
 348 884 l 1,15,16
 348 884 348 884 348 833 c 256,17,18
 348 782 348 782 348 709 c 128,-1,19
 348 636 348 636 348 555 c 256,20,21
 348 474 348 474 348 415 c 0,22,23
 348 278 348 278 390 207 c 256,24,25
 432 136 432 136 492 105 c 128,-1,26
 552 74 552 74 617 71 c 0,27,28
 683 69 683 69 731 69 c 1,29,-1
 731 -8 l 1,0,1
649 885 m 1,30,-1
 649 485 l 1,31,-1
 812 485 l 1,32,-1
 812 885 l 1,33,-1
 649 885 l 1,30,-1
EndSplineSet
EndChar

StartChar: uni30EB
Encoding: 12523 12523 112
Width: 1064
GlyphClass: 2
Flags: W
LayerCount: 2
Fore
SplineSet
401 0 m 1,0,-1
 279 0 l 1,1,2
 309 446 309 446 340 891 c 1,3,-1
 466 891 l 1,4,5
 433 446 433 446 401 0 c 1,0,-1
697 884 m 1,6,-1
 582 882 l 1,7,8
 586 337 586 337 771 39 c 1,9,-1
 847 67 l 1,10,11
 699 367 699 367 697 884 c 1,6,-1
EndSplineSet
EndChar

StartChar: uni30EE
Encoding: 12526 12526 113
Width: 1024
GlyphClass: 2
Flags: W
LayerCount: 2
Fore
SplineSet
350 739 m 1,0,-1
 672 739 l 1,1,-1
 672 473 l 1,2,-1
 814 473 l 1,3,-1
 814 852 l 1,4,-1
 208 852 l 1,5,-1
 208 394 l 2,6,7
 208 223 208 223 275 139 c 0,8,9
 342 53 342 53 431.5 18 c 128,-1,10
 521 -17 521 -17 610 -19 c 0,11,12
 690 -20 690 -20 733 -20 c 1,13,-1
 733 37 l 1,14,15
 688 37 688 37 630 40 c 0,16,17
 561 42 561 42 499 74 c 128,-1,18
 437 106 437 106 393.5 179.5 c 128,-1,19
 350 253 350 253 350 394 c 2,20,-1
 350 739 l 1,0,-1
EndSplineSet
EndChar

StartChar: uni30EF
Encoding: 12527 12527 114
Width: 1024
GlyphClass: 2
Flags: W
LayerCount: 2
Fore
SplineSet
350 739 m 1,0,-1
 672 739 l 1,1,-1
 672 473 l 1,2,-1
 814 473 l 1,3,-1
 814 852 l 1,4,-1
 208 852 l 1,5,-1
 208 394 l 2,6,7
 208 223 208 223 275 139 c 0,8,9
 342 53 342 53 431.5 18 c 128,-1,10
 521 -17 521 -17 610 -19 c 0,11,12
 690 -20 690 -20 733 -20 c 1,13,-1
 733 37 l 1,14,15
 688 37 688 37 630 40 c 0,16,17
 561 42 561 42 499 74 c 128,-1,18
 437 106 437 106 393.5 179.5 c 128,-1,19
 350 253 350 253 350 394 c 2,20,-1
 350 739 l 1,0,-1
EndSplineSet
EndChar

StartChar: uni30F2
Encoding: 12530 12530 115
Width: 1064
GlyphClass: 2
Flags: W
LayerCount: 2
Fore
SplineSet
383 795 m 1,0,-1
 815 795 l 1,1,-1
 815 888 l 1,2,-1
 209 888 l 1,3,4
 211 751 211 751 240 593 c 0,5,6
 253 516 253 516 273.5 460 c 128,-1,7
 294 404 294 404 320 356 c 2,8,-1
 327 342 l 1,9,-1
 335 327 l 1,10,-1
 319 327 l 1,11,-1
 307 327 l 1,12,-1
 280 310 l 1,13,-1
 268 180 l 1,14,-1
 388 251 l 1,15,-1
 393 245 l 1,16,-1
 399 238 l 2,17,18
 452 176 452 176 512 133.5 c 128,-1,19
 572 91 572 91 627.5 66.5 c 128,-1,20
 683 42 683 42 731.5 30 c 128,-1,21
 780 18 780 18 814 15 c 1,22,-1
 814 55 l 1,23,24
 692 86 692 86 581 208 c 0,25,26
 541 251 541 251 510 297 c 2,27,-1
 504 306 l 1,28,-1
 498 314 l 1,29,-1
 643 399 l 1,30,-1
 643 524 l 1,31,-1
 446 409 l 1,32,-1
 442 419 l 1,33,-1
 437 430 l 2,34,35
 407 501 407 501 392 594 c 0,36,37
 386 636 386 636 384.5 666 c 128,-1,38
 383 696 383 696 383 731 c 2,39,-1
 383 795 l 1,0,-1
EndSplineSet
EndChar

StartChar: uni30F3
Encoding: 12531 12531 116
Width: 1024
GlyphClass: 2
Flags: W
LayerCount: 2
Fore
SplineSet
406 331.5 m 128,-1,1
 363 425 363 425 363 549 c 2,2,-1
 363 823 l 1,3,-1
 200 823 l 1,4,-1
 200 549 l 2,5,6
 200 375 200 375 262 262 c 128,-1,7
 324 149 324 149 413 81 c 128,-1,8
 502 13 502 13 598.5 -16 c 128,-1,9
 695 -45 695 -45 765 -50 c 0,10,11
 768 -47 768 -47 771 -46 c 2,12,-1
 771 23 l 1,13,14
 715 34 715 34 644 71 c 0,15,16
 574 109 574 109 511.5 173.5 c 128,-1,0
 449 238 449 238 406 331.5 c 128,-1,1
824 833 m 1,17,-1
 774 412 l 1,18,-1
 613 412 l 1,19,-1
 663 833 l 1,20,-1
 824 833 l 1,17,-1
EndSplineSet
EndChar

StartChar: uni30F4
Encoding: 12532 12532 117
Width: 1064
GlyphClass: 2
Flags: W
LayerCount: 2
Fore
SplineSet
330 641 m 2,0,-1
 331 724 l 1,1,-1
 817 724 l 1,2,-1
 816 828 l 1,3,-1
 208 828 l 1,4,-1
 208 641 l 2,5,6
 208 565 208 565 219 477 c 0,7,8
 228 401 228 401 263 328 c 0,9,10
 296 258 296 258 361 200 c 5,11,12
 501 105 501 105 530 101 c 5,13,14
 530 101 530 101 554 100 c 1,15,-1
 556 96 l 1,16,17
 537 51 537 51 520 -5 c 1,18,-1
 646 -5 l 1,19,-1
 762 385 l 1,20,-1
 638 385 l 1,21,-1
 583 198 l 1,22,-1
 572 203 l 1,23,-1
 561 209 l 1,24,25
 437 272 437 272 381 383 c 0,26,27
 328 488 328 488 330 641 c 2,0,-1
EndSplineSet
EndChar

StartChar: uni30F5
Encoding: 12533 12533 118
Width: 1064
GlyphClass: 2
Flags: W
LayerCount: 2
Fore
SplineSet
698 569 m 2,0,-1
 698 579 l 1,1,-1
 824 579 l 1,2,-1
 824 681 l 1,3,-1
 698 681 l 1,4,5
 698 738 698 738 698 814 c 1,6,-1
 549 814 l 1,7,8
 549 738 549 738 549 681 c 1,9,-1
 199 681 l 1,10,-1
 199 41 l 2,11,12
 199 8 199 8 225.5 -16 c 128,-1,13
 252 -40 252 -40 290 -40 c 2,14,-1
 469 -40 l 1,15,16
 469 21 469 21 469 61 c 1,17,18
 431 72 431 72 394 62 c 1,19,20
 393 69 393 69 393 62 c 1,21,22
 371 63 371 63 356 75 c 0,23,24
 340 87 340 87 340 104 c 2,25,-1
 340 579 l 1,26,-1
 550 579 l 1,27,-1
 550 569 l 2,28,29
 550 482 550 482 560.5 381.5 c 128,-1,30
 571 281 571 281 603 192 c 0,31,32
 634 106 634 106 693 42 c 0,33,34
 745 -17 745 -17 826 -38 c 1,35,36
 826 0 826 0 826 20 c 1,37,38
 781 49 781 49 755 103 c 0,39,40
 708 208 708 208 701 394 c 0,41,42
 698 480 698 480 698 569 c 2,0,-1
EndSplineSet
EndChar

StartChar: uni30F6
Encoding: 12534 12534 119
Width: 1064
GlyphClass: 2
Flags: W
LayerCount: 2
Fore
SplineSet
469 596 m 1,0,-1
 601 596 l 1,1,-1
 603 590 l 1,2,3
 632 523 632 523 687 462 c 0,4,5
 732 412 732 412 813 391 c 1,6,-1
 813 449 l 1,7,8
 764 482 764 482 744 519 c 0,9,10
 721 561 721 561 711 610 c 128,-1,11
 701 659 701 659 698.5 724 c 128,-1,12
 696 789 696 789 696 854 c 2,13,-1
 696 874 l 1,14,-1
 696 884 l 1,15,-1
 812 884 l 1,16,-1
 812 908 l 1,17,-1
 208 908 l 1,18,-1
 208 884 l 1,19,-1
 545 884 l 1,20,-1
 546 731 l 1,21,-1
 209 731 l 1,22,-1
 209 597 l 1,23,-1
 319 597 l 1,24,-1
 319 382 l 2,25,26
 319 242 319 242 368.5 160 c 128,-1,27
 418 78 418 78 491.5 36 c 128,-1,28
 565 -6 565 -6 647 -19 c 0,29,30
 722 -30 722 -30 781 -32 c 1,31,-1
 781 26 l 1,32,33
 735 29 735 29 683 42 c 0,34,35
 628 55 628 55 579 93 c 0,36,37
 528 134 528 134 499 200 c 0,38,39
 469 269 469 269 469 382 c 2,40,-1
 469 596 l 1,0,-1
EndSplineSet
EndChar

StartChar: uni30FB
Encoding: 12539 12539 120
Width: 1044
GlyphClass: 2
Flags: W
LayerCount: 2
Fore
SplineSet
418 -10 m 1,0,-1
 626 -10 l 1,1,-1
 626 188 l 1,2,-1
 418 188 l 1,3,-1
 418 -10 l 1,0,-1
EndSplineSet
EndChar

StartChar: uni30FC
Encoding: 12540 12540 121
Width: 1024
GlyphClass: 2
Flags: W
LayerCount: 2
Fore
SplineSet
246 501 m 1,0,-1
 246 390 l 1,1,-1
 791 390 l 1,2,-1
 791 501 l 1,3,-1
 246 501 l 1,0,-1
EndSplineSet
EndChar

StartChar: G
Encoding: 65538 -1 122
Width: 1024
GlyphClass: 2
Flags: W
LayerCount: 2
Fore
SplineSet
261 887 m 1,0,-1
 763 886 l 1,1,-1
 763 736 l 1,2,-1
 411 736 l 1,3,-1
 411 454 l 1,4,-1
 455 356 l 1,5,-1
 508 356 l 1,6,-1
 508 576 l 1,7,-1
 634 576 l 1,8,-1
 635 258 l 1,9,-1
 742 63 l 1,10,-1
 742 0 l 1,11,-1
 657 0 l 1,12,-1
 516 263 l 1,13,-1
 395 263 l 1,14,-1
 337 323 l 1,15,-1
 260 488 l 1,16,-1
 261 887 l 1,0,-1
EndSplineSet
EndChar

StartChar: exclam
Encoding: 33 33 123
Width: 1024
Flags: W
LayerCount: 2
Fore
SplineSet
476 932 m 1,0,-1
 552 932 l 1,1,-1
 552 -5 l 1,2,-1
 476 -5 l 1,3,-1
 476 932 l 1,0,-1
EndSplineSet
EndChar
